<svg width="32" height="32" viewBox="0 0 32 32" fill="none" xmlns="http://www.w3.org/2000/svg">
<path d="M25.3333 2.66675H12C10.5293 2.66675 9.33333 3.86275 9.33333 5.33341V13.3334H6.66667C5.196 13.3334 4 14.5294 4 16.0001V28.0001C4 28.3537 4.14048 28.6928 4.39052 28.9429C4.64057 29.1929 4.97971 29.3334 5.33333 29.3334H26.6667C27.0203 29.3334 27.3594 29.1929 27.6095 28.9429C27.8595 28.6928 28 28.3537 28 28.0001V5.33341C28 3.86275 26.804 2.66675 25.3333 2.66675ZM6.66667 16.0001H14.6667V26.6667H6.66667V16.0001ZM25.3333 26.6667H17.3333V16.0001C17.3333 14.5294 16.1373 13.3334 14.6667 13.3334H12V5.33341H25.3333V26.6667Z" fill="#3454D1"/>
<path d="M14.6668 8H17.3335V10.6667H14.6668V8ZM20.0002 8H22.6668V10.6667H20.0002V8ZM20.0002 13.3747H22.6668V16H20.0002V13.3747ZM20.0002 18.6667H22.6668V21.3333H20.0002V18.6667ZM9.3335 18.668H12.0002V21.3347H9.3335V18.668Z" fill="#3454D1"/>
</svg>
