<svg width="32" height="32" viewBox="0 0 32 32" fill="none" xmlns="http://www.w3.org/2000/svg">
<path d="M15.9998 29.3334C8.63584 29.3334 2.6665 23.3641 2.6665 16.0001C2.6665 8.63608 8.63584 2.66675 15.9998 2.66675C23.3638 2.66675 29.3332 8.63608 29.3332 16.0001C29.3332 23.3641 23.3638 29.3334 15.9998 29.3334ZM15.9998 26.6668C18.8288 26.6667 21.5419 25.5429 23.5423 23.5426C25.5427 21.5422 26.6665 18.8291 26.6665 16.0001C26.6665 13.1711 25.5427 10.458 23.5423 8.45761C21.5419 6.45722 18.8288 5.33342 15.9998 5.33342C13.1709 5.33342 10.4578 6.45722 8.45737 8.45761C6.45698 10.458 5.33317 13.1711 5.33317 16.0001C5.33317 18.8291 6.45698 21.5422 8.45737 23.5426C10.4578 25.5429 13.1709 26.6667 15.9998 26.6668ZM9.33317 15.3334L21.3332 10.6667L16.6665 22.6694L14.6665 17.3334L9.33317 15.3334Z" fill="#3454D1"/>
</svg>
