<svg width="302" height="90" viewBox="0 0 302 90" fill="none" xmlns="http://www.w3.org/2000/svg">
<path d="M26.3638 65.0781V56.12C26.3638 53.8332 28.2033 51.9795 30.4726 51.9795H38.7677C39.8575 51.9795 40.9026 52.4157 41.6731 53.1922C42.4436 53.9686 42.8765 55.0219 42.8765 56.12V65.0781C42.8696 66.0289 43.2396 66.943 43.9043 67.6177C44.569 68.2924 45.4733 68.6719 46.4168 68.6718H52.076C54.7192 68.6788 57.2564 67.6256 59.1277 65.7446C60.9991 63.8636 62.0509 61.3095 62.0509 58.6459V33.1256C62.0509 30.974 61.1044 28.9331 59.4667 27.5528L40.2149 12.0582C36.8659 9.34149 32.0677 9.4292 28.8187 12.2665L10.0062 27.5528C8.29104 28.8925 7.26593 30.9393 7.21527 33.1256V58.6199C7.21527 64.1715 11.6812 68.6718 17.19 68.6718H22.7201C24.6796 68.6719 26.2721 67.0788 26.2863 65.1041L26.3638 65.0781Z" fill="#3454D1"/>
<path d="M26.3637 65.0783V56.1202C26.3637 53.8333 28.2033 51.9796 30.4726 51.9796H38.7676C39.8574 51.9796 40.9025 52.4158 41.673 53.1923C42.4435 53.9687 42.8765 55.022 42.8765 56.1202V65.0783C42.8695 66.029 43.2396 66.9431 43.9042 67.6178C44.5689 68.2925 45.4732 68.6721 46.4168 68.6719H52.076C54.7192 68.679 57.2564 67.6257 59.1277 65.7447C60.9991 63.8637 62.0508 61.3096 62.0508 58.6461V33.1257C62.0508 30.9742 61.1044 28.9333 59.4667 27.5529L40.2148 12.0583C36.8658 9.34162 32.0676 9.42932 28.8186 12.2667L10.0061 27.5529C8.29098 28.8926 7.26587 30.9394 7.21521 33.1257V58.62C7.21521 64.1716 11.6811 68.6719 17.19 68.6719H22.72C24.6796 68.6721 26.272 67.0789 26.2863 65.1043L26.3637 65.0783Z" fill="#3454D1"/>
<path d="M80.8474 66.0938H93.282C94.2129 66.0938 94.8114 65.6888 94.8114 64.9463V64.7438C94.8114 63.0563 91.9521 62.4488 91.9521 59.6138L92.0186 44.0888H112.366V59.6138C112.366 62.4488 109.839 63.0563 109.839 64.7438V64.9463C109.839 65.6888 110.371 66.0938 111.302 66.0938H123.737C124.668 66.0938 125.266 65.6888 125.266 64.9463V64.7438C125.266 63.0563 122.407 62.4488 122.407 59.6138V24.6488C122.407 21.8138 125.266 21.2063 125.266 19.5188V19.2488C125.266 18.5738 124.668 18.1688 123.737 18.1688H111.302C110.371 18.1688 109.839 18.5738 109.839 19.2488V19.5188C109.839 21.2063 112.366 21.8138 112.366 24.6488V39.6338H92.0186V24.6488C92.0186 21.8138 94.8114 21.2063 94.8114 19.5188V19.2488C94.8114 18.5738 94.2129 18.1688 93.282 18.1688H80.8474C79.9164 18.1688 79.3845 18.5738 79.3845 19.2488V19.5188C79.3845 21.2063 81.9113 21.8138 81.9113 24.6488V59.6138C81.9113 62.4488 79.3845 63.0563 79.3845 64.7438V64.9463C79.3845 65.6888 79.9164 66.0938 80.8474 66.0938ZM144.195 66.7688C153.904 66.7688 161.085 59.6138 161.085 50.0288C161.085 40.4438 153.438 33.0188 143.198 33.0188C133.889 33.0188 125.976 39.9038 125.976 49.6913C125.976 59.0738 133.49 66.7688 144.195 66.7688ZM145.392 63.7988C139.341 63.7988 135.751 52.7288 135.751 45.8438C135.751 39.4313 137.879 35.9888 141.868 35.9888C147.52 35.9888 151.111 46.6538 151.111 54.0113C151.111 60.2213 148.983 63.7988 145.392 63.7988ZM217.479 59.5463L216.681 47.5313C215.883 36.5288 210.364 33.0188 204.313 33.0188C199.858 33.0188 196.001 35.2463 194.205 39.0938C191.945 35.1113 187.888 33.0188 183.167 33.0188C179.244 33.0188 175.919 34.9088 173.991 37.8788V34.7063C173.991 33.4238 173.193 32.4788 171.663 33.2888L163.285 37.2038C162.487 37.6088 161.889 37.9463 161.889 38.6213V38.8913C161.889 40.5788 165.147 40.9163 165.147 43.8863V59.6138C165.147 62.5163 162.288 63.0563 162.288 64.7438V65.0138C162.288 65.7563 162.953 66.1613 163.817 66.1613H176.185C177.116 66.1613 177.715 65.7563 177.715 65.0138V64.7438C177.715 63.0563 174.855 62.5163 174.855 59.6138V44.3588C174.855 40.1063 176.917 36.8663 180.574 36.8663C183.965 36.8663 186.359 40.1738 186.359 46.4513V59.6138C186.359 62.5163 183.965 63.0563 183.965 64.7438V65.0138C183.965 65.7563 184.63 66.1613 185.495 66.1613H196.998C197.863 66.1613 198.461 65.7563 198.461 65.0138V64.7438C198.461 63.0563 196.134 62.5163 196.134 59.6138V47.1263C196.134 45.9788 196.067 44.8988 195.868 43.8863C196.001 39.8363 198.129 36.8663 201.254 36.8663C204.778 36.8663 206.707 39.6338 207.039 47.2613L207.704 59.6138C207.903 62.5163 205.377 63.0563 205.377 64.7438V65.0138C205.377 65.7563 205.975 66.1613 206.906 66.1613H218.41C219.274 66.1613 219.873 65.7563 219.873 65.0138V64.7438C219.873 63.0563 217.678 62.5163 217.479 59.5463ZM247.341 55.8338C246.077 57.9263 243.285 59.7488 239.76 59.7488C235.771 59.7488 232.712 57.5888 230.983 53.8763L245.745 47.0588C247.54 46.2488 248.671 44.8988 248.671 42.6038C248.671 38.1488 244.814 33.0188 236.103 33.0188C227.392 33.0188 220.011 39.8363 220.011 49.6238C220.011 60.0188 226.86 66.7688 236.103 66.7688C244.681 66.7688 249.203 60.4913 249.602 56.5763C249.668 55.1588 248.139 54.8213 247.341 55.8338ZM234.906 35.9888C238.497 35.9888 240.226 40.7813 240.226 43.2113C240.226 44.6288 239.694 45.7763 238.497 46.3838L229.919 50.7713C229.454 49.0163 229.254 47.0588 229.254 44.9663C229.254 39.8363 231.382 35.9888 234.906 35.9888ZM251.544 66.0938H263.779C264.643 66.0938 265.308 65.6213 265.308 64.9463V64.6763C265.308 62.9888 262.449 62.4488 262.449 59.6138V16.6838C262.449 15.5363 261.452 14.5913 259.723 15.4688L251.344 19.6538C250.546 19.9913 250.014 20.3288 250.014 21.0038V21.2738C250.014 22.6913 252.608 23.3663 252.608 26.4038V59.6138C252.608 62.4488 250.014 62.9888 250.014 64.6763V64.9463C250.014 65.6213 250.613 66.0938 251.544 66.0938ZM299.572 33.6938H291.459C290.595 33.6938 290.063 34.1663 290.063 34.8413V35.1113C290.063 36.7988 294.717 37.2038 292.989 41.4563L285.807 58.8038L278.027 40.5113C276.564 37.0013 279.024 36.7988 279.024 35.1113V34.8413C279.024 34.1663 278.493 33.6938 277.761 33.6938H265.326C264.528 33.6938 263.93 34.0988 263.93 34.7738V35.1113C263.93 36.7988 266.058 37.3388 267.521 40.3763L280.753 67.9163C278.891 72.5738 276.232 77.3663 273.904 77.3663C270.447 77.3663 272.175 69.2663 266.723 69.2663C264.196 69.2663 262.733 70.9538 262.733 73.3163C262.733 76.8263 266.523 80.5388 272.508 80.5388C279.357 80.5388 282.815 72.9113 284.943 68.1188L297.51 40.3763C298.84 37.4063 300.901 36.7988 300.901 35.1113V34.7738C300.901 34.0988 300.37 33.6938 299.572 33.6938Z" fill="#121F3E"/>
</svg>
