<svg width="32" height="32" viewBox="0 0 32 32" fill="none" xmlns="http://www.w3.org/2000/svg">
<path d="M15.9998 29.3334C8.63584 29.3334 2.6665 23.3641 2.6665 16.0001C2.6665 8.63608 8.63584 2.66675 15.9998 2.66675C23.3638 2.66675 29.3332 8.63608 29.3332 16.0001C29.3332 23.3641 23.3638 29.3334 15.9998 29.3334ZM15.9998 26.6667C18.8288 26.6667 21.5419 25.5429 23.5423 23.5426C25.5427 21.5422 26.6665 18.8291 26.6665 16.0001C26.6665 13.1711 25.5427 10.458 23.5423 8.45761C21.5419 6.45722 18.8288 5.33341 15.9998 5.33341C13.1709 5.33341 10.4578 6.45722 8.45737 8.45761C6.45698 10.458 5.33317 13.1711 5.33317 16.0001C5.33317 18.8291 6.45698 21.5422 8.45737 23.5426C10.4578 25.5429 13.1709 26.6667 15.9998 26.6667ZM11.3332 18.6667H18.6665C18.8433 18.6667 19.0129 18.5965 19.1379 18.4715C19.2629 18.3465 19.3332 18.1769 19.3332 18.0001C19.3332 17.8233 19.2629 17.6537 19.1379 17.5287C19.0129 17.4037 18.8433 17.3334 18.6665 17.3334H13.3332C12.4491 17.3334 11.6013 16.9822 10.9761 16.3571C10.351 15.732 9.99984 14.8841 9.99984 14.0001C9.99984 13.116 10.351 12.2682 10.9761 11.6431C11.6013 11.0179 12.4491 10.6667 13.3332 10.6667H14.6665V8.00008H17.3332V10.6667H20.6665V13.3334H13.3332C13.1564 13.3334 12.9868 13.4037 12.8618 13.5287C12.7367 13.6537 12.6665 13.8233 12.6665 14.0001C12.6665 14.1769 12.7367 14.3465 12.8618 14.4715C12.9868 14.5965 13.1564 14.6667 13.3332 14.6667H18.6665C19.5506 14.6667 20.3984 15.0179 21.0235 15.6431C21.6486 16.2682 21.9998 17.116 21.9998 18.0001C21.9998 18.8841 21.6486 19.732 21.0235 20.3571C20.3984 20.9822 19.5506 21.3334 18.6665 21.3334H17.3332V24.0001H14.6665V21.3334H11.3332V18.6667Z" fill="#3454D1"/>
</svg>
