<svg width="32" height="32" viewBox="0 0 32 32" fill="none" xmlns="http://www.w3.org/2000/svg">
<path d="M14.6619 23.9167C11.9722 23.5744 9.51375 22.2209 7.7862 20.1311C6.05864 18.0413 5.19165 15.3721 5.36144 12.666C5.53123 9.9599 6.72505 7.42 8.70027 5.56253C10.6755 3.70505 13.2839 2.66938 15.9953 2.66602C18.71 2.664 21.3233 3.69714 23.3028 5.55492C25.2823 7.41271 26.479 9.95534 26.649 12.6647C26.819 15.3741 25.9495 18.0464 24.2178 20.137C22.486 22.2277 20.0223 23.5794 17.3286 23.9167V26.682C22.5899 26.8047 26.6619 27.646 26.6619 28.666C26.6619 29.77 21.8859 30.666 15.9953 30.666C10.1046 30.666 5.32861 29.77 5.32861 28.666C5.32861 27.646 9.40061 26.8047 14.6619 26.682V23.9167ZM15.9953 21.3327C18.117 21.3327 20.1518 20.4898 21.6521 18.9895C23.1524 17.4892 23.9953 15.4544 23.9953 13.3327C23.9953 11.211 23.1524 9.17612 21.6521 7.67583C20.1518 6.17554 18.117 5.33269 15.9953 5.33269C13.8735 5.33269 11.8387 6.17554 10.3384 7.67583C8.83814 9.17612 7.99528 11.211 7.99528 13.3327C7.99528 15.4544 8.83814 17.4892 10.3384 18.9895C11.8387 20.4898 13.8735 21.3327 15.9953 21.3327ZM15.9953 15.9994C15.288 15.9994 14.6098 15.7184 14.1097 15.2183C13.6096 14.7182 13.3286 14.0399 13.3286 13.3327C13.3286 12.6254 13.6096 11.9472 14.1097 11.4471C14.6098 10.947 15.288 10.666 15.9953 10.666C16.7025 10.666 17.3808 10.947 17.8809 11.4471C18.381 11.9472 18.6619 12.6254 18.6619 13.3327C18.6619 14.0399 18.381 14.7182 17.8809 15.2183C17.3808 15.7184 16.7025 15.9994 15.9953 15.9994Z" fill="#3454D1"/>
</svg>
