<svg width="132" height="34" viewBox="0 0 132 34" fill="none" xmlns="http://www.w3.org/2000/svg">
<path d="M6.63699 14.434L5.229 9.24902L0.0100098 10.623L1.418 15.842L6.63699 14.434ZM6.63699 22.057L1.418 20.649L0.0100098 25.868L5.229 27.242L6.63699 22.057ZM13.23 25.868L9.418 29.68L13.23 33.491L17.042 29.68L13.23 25.868ZM19.823 22.057L21.231 27.276L26.45 25.868L25.042 20.649L19.823 22.057ZM19.823 14.434L25.042 15.842L26.45 10.623L21.231 9.24902L19.823 14.434ZM13.23 10.622L17.042 6.81104L13.23 2.99902L9.418 6.81104L13.23 10.622Z" fill="#6D7D93"/>
<path d="M48.9824 26L47 20.3535H39.1523L37.1699 26H34.5859L41.8594 6.27148H44.293L51.5664 26H48.9824ZM43.0352 9.26562L39.877 18.2617H46.2754L43.1172 9.26562H43.0352ZM58.5664 26.2461C56.7435 26.2461 55.2715 25.5762 54.1504 24.2363C53.0384 22.8965 52.4824 21.1146 52.4824 18.8906C52.4824 16.6758 53.0384 14.8984 54.1504 13.5586C55.2624 12.2096 56.7161 11.5352 58.5117 11.5352C59.5143 11.5352 60.4121 11.763 61.2051 12.2188C61.998 12.6745 62.6087 13.2988 63.0371 14.0918H63.0918V6.27148H65.4707V26H63.2012V23.5938H63.1602C62.6953 24.4232 62.0664 25.0749 61.2734 25.5488C60.4805 26.0137 59.5781 26.2461 58.5664 26.2461ZM59.0176 13.627C57.7598 13.627 56.7617 14.1055 56.0234 15.0625C55.2852 16.0104 54.916 17.2865 54.916 18.8906C54.916 20.5039 55.2852 21.7845 56.0234 22.7324C56.7617 23.6803 57.7598 24.1543 59.0176 24.1543C60.248 24.1543 61.237 23.6758 61.9844 22.7188C62.7318 21.7526 63.1055 20.4766 63.1055 18.8906C63.1055 17.3047 62.7272 16.0332 61.9707 15.0762C61.2233 14.11 60.2389 13.627 59.0176 13.627ZM80.3457 11.7812L75.123 26H72.6895L67.4531 11.7812H69.9551L73.8789 23.4707H73.9336L77.8711 11.7812H80.3457ZM87.5098 13.5996C86.4069 13.5996 85.4909 13.9824 84.7617 14.748C84.0417 15.5046 83.6452 16.4798 83.5723 17.6738H91.2969C91.2695 16.4707 90.9095 15.4909 90.2168 14.7344C89.5241 13.9779 88.6217 13.5996 87.5098 13.5996ZM91.2422 21.9258H93.5801C93.3704 23.1836 92.7142 24.2181 91.6113 25.0293C90.5176 25.8405 89.2005 26.2461 87.6602 26.2461C85.6276 26.2461 84.028 25.5898 82.8613 24.2773C81.6947 22.9648 81.1113 21.1875 81.1113 18.9453C81.1113 16.7214 81.6947 14.9303 82.8613 13.5723C84.0371 12.2142 85.6003 11.5352 87.5508 11.5352C89.4648 11.5352 90.9779 12.1777 92.0898 13.4629C93.2018 14.748 93.7578 16.4707 93.7578 18.6309V19.5332H83.5586V19.6699C83.5586 21.0371 83.9323 22.1309 84.6797 22.9512C85.4271 23.7715 86.4388 24.1816 87.7148 24.1816C88.6081 24.1816 89.3691 23.9766 89.998 23.5664C90.627 23.1562 91.0417 22.6094 91.2422 21.9258ZM96.1641 26V11.7812H98.4062V14.1055H98.4609C98.6979 13.3125 99.1217 12.6882 99.7324 12.2324C100.352 11.7676 101.077 11.5352 101.906 11.5352C102.098 11.5352 102.417 11.5671 102.863 11.6309V13.9414C102.608 13.8503 102.184 13.8047 101.592 13.8047C100.671 13.8047 99.9329 14.11 99.377 14.7207C98.821 15.3314 98.543 16.138 98.543 17.1406V26H96.1641ZM116.48 11.7812V26H114.225V23.6895H114.17C113.286 25.3939 111.782 26.2461 109.658 26.2461C108.118 26.2461 106.91 25.7812 106.035 24.8516C105.169 23.9128 104.736 22.6322 104.736 21.0098V11.7812H107.115V20.5859C107.115 22.9557 108.209 24.1406 110.396 24.1406C111.545 24.1406 112.447 23.7806 113.104 23.0605C113.769 22.3314 114.102 21.3561 114.102 20.1348V11.7812H116.48ZM119.324 15.7051C119.324 14.4837 119.816 13.4857 120.801 12.7109C121.794 11.9271 123.07 11.5352 124.629 11.5352C126.096 11.5352 127.318 11.9271 128.293 12.7109C129.268 13.4948 129.783 14.4883 129.838 15.6914H127.568C127.486 14.9987 127.176 14.4564 126.639 14.0645C126.11 13.6725 125.413 13.4766 124.547 13.4766C123.681 13.4766 122.984 13.6725 122.455 14.0645C121.926 14.4473 121.662 14.9531 121.662 15.582C121.662 16.5482 122.451 17.2318 124.027 17.6328L126.229 18.166C127.66 18.5306 128.667 19.0046 129.25 19.5879C129.842 20.1621 130.139 20.9733 130.139 22.0215C130.139 23.2611 129.61 24.2773 128.553 25.0703C127.495 25.8542 126.137 26.2461 124.479 26.2461C122.929 26.2461 121.648 25.8633 120.637 25.0977C119.634 24.3229 119.069 23.3021 118.941 22.0352H121.32C121.585 23.5482 122.688 24.3047 124.629 24.3047C125.586 24.3047 126.342 24.1178 126.898 23.7441C127.464 23.3613 127.746 22.8464 127.746 22.1992C127.746 21.6888 127.577 21.2832 127.24 20.9824C126.912 20.6816 126.352 20.4264 125.559 20.2168L123.057 19.5742C120.568 18.9362 119.324 17.6465 119.324 15.7051Z" fill="#6D7D93"/>
</svg>
