<svg width="139" height="31" viewBox="0 0 139 31" fill="none" xmlns="http://www.w3.org/2000/svg">
<path d="M33.2239 18.988L36.8449 17.998C36.9046 18.7962 37.2774 19.5384 37.8819 20.063C38.5899 20.6511 39.494 20.9497 40.4129 20.899C41.0978 20.938 41.7768 20.7526 42.3469 20.371C42.5611 20.2282 42.737 20.035 42.859 19.8083C42.9811 19.5817 43.0456 19.3285 43.0469 19.071C43.0479 18.8576 43.0019 18.6465 42.912 18.453C42.8221 18.2594 42.6906 18.088 42.5269 17.951C42.0808 17.5978 41.5478 17.3712 40.9839 17.295L38.3839 16.711C37.0469 16.4645 35.8239 15.7966 34.8939 14.805C34.0896 13.9045 33.6537 12.7343 33.6729 11.527C33.6723 10.7734 33.8401 10.0292 34.1639 9.34873C34.4878 8.66827 34.9596 8.06878 35.5449 7.59403C36.8118 6.49273 38.4459 5.90708 40.1239 5.95301C40.9766 5.94341 41.8259 6.06104 42.6439 6.30201C43.301 6.48753 43.9238 6.77832 44.4879 7.16303C44.9522 7.49707 45.3635 7.89926 45.7079 8.35603C46.0119 8.74576 46.2653 9.17249 46.4619 9.62602C46.6173 10.0006 46.7278 10.3924 46.7909 10.793L43.3499 11.783C43.3115 11.4988 43.2285 11.2224 43.1039 10.964C42.9609 10.6674 42.7782 10.3915 42.5609 10.144C42.2916 9.8468 41.9548 9.6187 41.5789 9.47901C41.115 9.30041 40.6209 9.21349 40.1239 9.22303C39.4692 9.19903 38.8274 9.4085 38.3129 9.81403C38.0921 9.97673 37.9121 10.1885 37.7871 10.4327C37.6622 10.6769 37.5957 10.9467 37.5929 11.221C37.5903 11.4379 37.632 11.6531 37.7156 11.8532C37.7992 12.0534 37.9228 12.2344 38.0789 12.385C38.4369 12.7261 38.8904 12.95 39.3789 13.027L42.0279 13.572C43.4103 13.7988 44.6889 14.447 45.6889 15.428C46.5243 16.2944 46.9821 17.4566 46.9619 18.66C46.9617 19.3849 46.8207 20.1029 46.5469 20.774C46.2628 21.4674 45.8586 22.1052 45.3529 22.658C44.7791 23.2676 44.0759 23.7406 43.2949 24.042C42.387 24.4034 41.4169 24.5824 40.4399 24.569C39.3417 24.5862 38.2502 24.3941 37.2239 24.003C36.3762 23.6927 35.6098 23.1946 34.9819 22.546C34.4795 22.0145 34.0589 21.4112 33.7339 20.756C33.4627 20.2007 33.2901 19.6025 33.2239 18.988Z" fill="#6D7D93"/>
<path d="M46.9719 10.176V6.50201H47.8719C48.2438 6.52879 48.6171 6.47473 48.9662 6.34354C49.3152 6.21234 49.6317 6.00712 49.8939 5.742C50.3681 5.18658 50.613 4.47149 50.5789 3.742V1.08801H54.3589V6.50201H57.9969V10.176H54.3589V18.352C54.3307 18.6554 54.3636 18.9614 54.4556 19.2518C54.5477 19.5422 54.6971 19.8113 54.8949 20.043C55.3718 20.4321 55.9818 20.6194 56.5949 20.565C57.0788 20.566 57.5615 20.5184 58.0359 20.423V23.855C57.2114 24.1478 56.338 24.2782 55.4639 24.239C54.7604 24.2778 54.0562 24.1745 53.3934 23.9353C52.7306 23.6962 52.1227 23.3261 51.6059 22.847C51.1212 22.3368 50.7461 21.7326 50.5038 21.0718C50.2614 20.4111 50.157 19.7077 50.1969 19.005V10.176H46.9719Z" fill="#6D7D93"/>
<path d="M59.0328 19.326C59.0026 18.6535 59.1173 17.9823 59.369 17.3579C59.6207 16.7335 60.0036 16.1705 60.4918 15.707C61.5646 14.7587 62.9024 14.1622 64.3248 13.998L68.8248 13.312C69.6915 13.2026 70.1248 12.8083 70.1248 12.129C70.1335 11.7856 70.0634 11.4448 69.9199 11.1328C69.7763 10.8207 69.5632 10.5458 69.2968 10.329C68.5763 9.81123 67.6966 9.56342 66.8118 9.62896C65.8868 9.58138 64.9797 9.89596 64.2828 10.506C63.6544 11.089 63.2675 11.8865 63.1988 12.741L59.3988 11.898C59.4779 11.0828 59.7171 10.2912 60.1027 9.56856C60.4882 8.84596 61.0127 8.20654 61.6458 7.68697C63.0772 6.49844 64.8977 5.88151 66.7568 5.95498C67.9342 5.93343 69.1064 6.11718 70.2208 6.49798C71.1175 6.79743 71.928 7.3101 72.5828 7.99196C73.1531 8.60848 73.5914 9.33501 73.8708 10.127C74.156 10.9566 74.2974 11.8288 74.2888 12.706V21.215C74.2742 22.1571 74.3505 23.0985 74.5168 24.026H70.5688C70.3991 23.2945 70.3318 22.543 70.3688 21.793C69.8426 22.6091 69.1256 23.2849 68.2798 23.762C67.2664 24.3273 66.1186 24.6069 64.9588 24.571C63.3822 24.6406 61.8416 24.0862 60.6708 23.028C60.1498 22.5632 59.7341 21.9925 59.4516 21.354C59.1691 20.7156 59.0263 20.0241 59.0328 19.326ZM63.1988 19.026C63.1935 19.326 63.2511 19.6238 63.3679 19.9002C63.4847 20.1767 63.658 20.4256 63.8768 20.631C64.1309 20.8591 64.4277 21.0348 64.75 21.1477C65.0723 21.2606 65.4138 21.3086 65.7548 21.289C66.3213 21.2954 66.8855 21.2152 67.4278 21.051C67.9313 20.894 68.4008 20.6436 68.8118 20.313C69.2558 19.9404 69.5906 19.4545 69.7808 18.907C70.0245 18.2156 70.141 17.4859 70.1248 16.753V15.962L65.5558 16.662C64.9235 16.744 64.3291 17.0092 63.8458 17.425C63.6289 17.6287 63.4587 17.8771 63.347 18.153C63.2353 18.4289 63.1847 18.7257 63.1988 19.023V19.026Z" fill="#6D7D93"/>
<path d="M77.106 24.028V6.50205H81.132V8.68604C81.6304 7.81596 82.387 7.12231 83.2969 6.70105C84.2312 6.23612 85.2604 5.99379 86.304 5.99305C87.4195 5.97277 88.5216 6.24002 89.5039 6.76905C90.4314 7.27405 91.1687 8.06788 91.6039 9.03003C92.1798 8.0511 93.0143 7.24978 94.0158 6.71402C95.0173 6.17827 96.147 5.92882 97.2809 5.99305C98.0529 5.9873 98.8196 6.12111 99.5439 6.38804C100.255 6.65506 100.91 7.05483 101.472 7.56604C102.091 8.14668 102.563 8.86658 102.849 9.66605C103.201 10.6225 103.374 11.6359 103.357 12.655V24.028H99.437V13.2881C99.4852 12.3378 99.1863 11.4023 98.5959 10.656C98.2761 10.3124 97.8832 10.045 97.4461 9.87366C97.0091 9.7023 96.5391 9.63135 96.071 9.66605C95.5785 9.64919 95.0884 9.74097 94.6354 9.93488C94.1824 10.1288 93.7777 10.4201 93.45 10.7881C92.7703 11.5523 92.4093 12.5478 92.4409 13.57V24.028H88.275V13.2881C88.3198 12.3423 88.0243 11.4117 87.442 10.665C87.1233 10.3171 86.7296 10.0463 86.2907 9.87305C85.8519 9.6998 85.3794 9.62867 84.909 9.66504C84.4155 9.64476 83.9235 9.73274 83.4676 9.92276C83.0117 10.1128 82.6029 10.4003 82.27 10.765C81.5926 11.5398 81.238 12.5447 81.279 13.573V24.031L77.106 24.028Z" fill="#6D7D93"/>
<path d="M106.357 30.869V6.50199H110.418V8.84998C110.931 7.99593 111.68 7.30914 112.576 6.87299C113.629 6.33996 114.796 6.07382 115.976 6.09799C117.094 6.04414 118.211 6.2462 119.239 6.68878C120.268 7.13137 121.182 7.80279 121.912 8.65198C123.406 10.5129 124.174 12.8534 124.072 15.238C124.167 17.6519 123.363 20.0153 121.815 21.87C121.077 22.7239 120.156 23.4009 119.121 23.851C118.086 24.301 116.963 24.5126 115.835 24.47C114.73 24.4912 113.636 24.2593 112.635 23.792C111.792 23.4104 111.064 22.8159 110.521 22.067V30.867L106.357 30.869ZM110.488 15.241C110.419 16.6986 110.887 18.1309 111.804 19.266C112.216 19.7601 112.735 20.1544 113.321 20.4194C113.908 20.6844 114.547 20.8131 115.19 20.796C115.835 20.8143 116.475 20.6871 117.064 20.4237C117.652 20.1604 118.174 19.7678 118.59 19.275C119.51 18.1378 119.978 16.7017 119.906 15.241C119.974 13.8042 119.509 12.393 118.599 11.279C118.179 10.7893 117.654 10.4003 117.063 10.1407C116.472 9.88106 115.831 9.75745 115.186 9.77899C114.544 9.76117 113.907 9.88788 113.321 10.1498C112.734 10.4117 112.215 10.8021 111.8 11.292C110.89 12.3999 110.422 13.8057 110.488 15.238V15.241Z" fill="#6D7D93"/>
<path d="M124.377 18.988L127.998 17.998C128.058 18.7962 128.43 19.5384 129.035 20.063C129.743 20.6512 130.648 20.9498 131.567 20.899C132.252 20.9378 132.93 20.7525 133.5 20.371C133.714 20.2282 133.89 20.035 134.012 19.8083C134.134 19.5817 134.199 19.3285 134.2 19.071C134.201 18.8576 134.155 18.6465 134.065 18.453C133.975 18.2594 133.844 18.088 133.68 17.951C133.234 17.5978 132.702 17.3712 132.138 17.295L129.538 16.711C128.201 16.4648 126.978 15.7968 126.049 14.805C125.244 13.905 124.807 12.7345 124.827 11.527C124.826 10.7734 124.994 10.0292 125.318 9.34873C125.642 8.66827 126.114 8.06878 126.699 7.59403C127.966 6.49273 129.6 5.90708 131.278 5.95301C132.131 5.94334 132.98 6.06097 133.798 6.30201C134.455 6.48733 135.078 6.77813 135.642 7.16303C136.106 7.49732 136.518 7.89946 136.863 8.35603C137.166 8.74602 137.419 9.17271 137.616 9.62602C137.771 10.0006 137.882 10.3924 137.945 10.793L134.504 11.783C134.466 11.4988 134.383 11.2224 134.259 10.964C134.115 10.6675 133.932 10.3917 133.715 10.144C133.446 9.8468 133.109 9.6187 132.733 9.47901C132.269 9.30031 131.775 9.21338 131.278 9.22303C130.624 9.19909 129.982 9.40857 129.468 9.81403C129.247 9.97658 129.067 10.1883 128.942 10.4325C128.816 10.6767 128.75 10.9466 128.747 11.221C128.744 11.4379 128.786 11.6531 128.87 11.8532C128.953 12.0534 129.077 12.2344 129.233 12.385C129.591 12.7259 130.045 12.9498 130.533 13.027L133.181 13.572C134.564 13.7986 135.843 14.4468 136.843 15.428C137.678 16.2947 138.135 17.4568 138.115 18.66C138.115 19.385 137.974 20.103 137.7 20.774C137.416 21.4676 137.012 22.1054 136.506 22.658C135.932 23.2676 135.229 23.7406 134.448 24.042C133.54 24.4033 132.571 24.5824 131.594 24.569C130.495 24.5863 129.404 24.3942 128.377 24.003C127.53 23.6924 126.764 23.1943 126.136 22.546C125.634 22.0145 125.213 21.4112 124.888 20.756C124.617 20.2006 124.444 19.6024 124.377 18.988Z" fill="#6D7D93"/>
<path d="M2.01187 5.22198C2.03002 5.17415 2.04309 5.12454 2.05087 5.07397C2.17727 4.17457 2.64004 3.35657 3.34586 2.78497C3.84575 2.3865 4.44367 2.12989 5.07687 2.04199C5.11878 2.03568 5.15996 2.02529 5.19986 2.01099C5.32411 1.9981 5.44894 1.99174 5.57385 1.99197C6.43612 1.98693 7.27044 2.29757 7.91943 2.86533C8.56842 3.43308 8.98723 4.21869 9.09686 5.07397C9.10849 5.20959 9.17109 5.33577 9.27203 5.42706C9.37298 5.51836 9.50478 5.56799 9.64087 5.56598H9.76987C9.90609 5.56847 10.0381 5.519 10.1392 5.42761C10.2402 5.33622 10.3027 5.20976 10.3139 5.07397C10.4187 4.2208 10.8329 3.43575 11.478 2.86768C12.1231 2.2996 12.9543 1.98801 13.8139 1.99197C14.6761 1.98693 15.5104 2.29757 16.1594 2.86533C16.8084 3.43308 17.2272 4.21869 17.3369 5.07397C17.3485 5.20959 17.4111 5.33577 17.512 5.42706C17.613 5.51836 17.7448 5.56799 17.8809 5.56598H17.9809C18.1171 5.56847 18.2491 5.519 18.3502 5.42761C18.4512 5.33622 18.5137 5.20976 18.5249 5.07397C18.6338 4.22254 19.0492 3.43998 19.6935 2.87271C20.3377 2.30544 21.1665 1.99233 22.0249 1.99197C22.9524 1.99185 23.843 2.35514 24.5059 3.00397C25.1559 3.6681 25.5196 4.56068 25.5189 5.48999C25.5189 6.34863 25.2058 7.17782 24.6382 7.82214C24.0707 8.46646 23.2876 8.88169 22.4359 8.98999C22.3001 9.00115 22.1736 9.06359 22.0822 9.16464C21.9909 9.26569 21.9414 9.39777 21.9438 9.534V9.63397C21.9418 9.77007 21.9915 9.90186 22.0828 10.0028C22.1741 10.1038 22.3002 10.1664 22.4359 10.178C23.2912 10.2872 24.0771 10.7057 24.6451 11.3545C25.213 12.0034 25.5238 12.8377 25.5189 13.7C25.5228 14.5597 25.2111 15.391 24.6428 16.0361C24.0745 16.6813 23.2892 17.0954 22.4359 17.2C22.3001 17.2111 22.1736 17.2736 22.0822 17.3746C21.9909 17.4757 21.9414 17.6078 21.9438 17.744V17.874C21.9421 18.01 21.9918 18.1417 22.0831 18.2426C22.1743 18.3435 22.3003 18.4061 22.4359 18.418C23.2912 18.5271 24.0771 18.9457 24.6451 19.5945C25.213 20.2434 25.5238 21.0777 25.5189 21.94C25.5189 22.056 25.5129 22.17 25.5019 22.283C25.4834 22.3308 25.47 22.3804 25.4619 22.431C25.3363 23.3304 24.8738 24.1486 24.1678 24.72C23.6676 25.1185 23.0694 25.3751 22.4359 25.463C22.3944 25.4696 22.3536 25.4796 22.3139 25.493C22.1893 25.5062 22.0641 25.5129 21.9389 25.513C21.0767 25.518 20.2425 25.2073 19.5937 24.6396C18.9449 24.0718 18.5263 23.2862 18.4169 22.431C18.4052 22.2954 18.3426 22.1692 18.2417 22.0779C18.1408 21.9866 18.009 21.937 17.8729 21.939H17.7429C17.6066 21.9365 17.4746 21.986 17.3735 22.0774C17.2725 22.1688 17.21 22.2952 17.1989 22.431C17.0943 23.2842 16.6801 24.0694 16.0349 24.6375C15.3897 25.2057 14.5585 25.5172 13.6989 25.513C12.8366 25.518 12.0023 25.2074 11.3533 24.6396C10.7043 24.0719 10.2855 23.2863 10.1759 22.431C10.1643 22.2954 10.1016 22.1692 10.0007 22.0779C9.89976 21.9866 9.76796 21.937 9.63187 21.939H9.53186C9.39564 21.9365 9.26359 21.986 9.16254 22.0774C9.06149 22.1688 8.99902 22.2952 8.98785 22.431C8.87933 23.2826 8.464 24.0654 7.8197 24.6328C7.1754 25.2001 6.34635 25.513 5.48785 25.513C4.55833 25.5142 3.6654 25.1509 3.00085 24.501C2.35118 23.8367 1.98785 22.9442 1.98886 22.015C1.98879 21.1565 2.30173 20.3274 2.86908 19.6831C3.43643 19.0388 4.21926 18.6235 5.07086 18.515C5.20683 18.5041 5.33351 18.4417 5.42511 18.3406C5.51671 18.2396 5.56635 18.1074 5.56387 17.971V17.871C5.56563 17.7348 5.51575 17.603 5.42429 17.5021C5.33283 17.4012 5.20656 17.3386 5.07086 17.327C4.21566 17.2176 3.43007 16.799 2.8623 16.1501C2.29454 15.5013 1.98385 14.6671 1.98886 13.805C1.98468 12.9454 2.29621 12.1141 2.86432 11.4689C3.43243 10.8238 4.2176 10.4096 5.07086 10.305C5.20683 10.2941 5.33351 10.2317 5.42511 10.1306C5.51671 10.0296 5.56635 9.89737 5.56387 9.76099V9.63098C5.56563 9.49479 5.51575 9.36301 5.42429 9.26208C5.33283 9.16116 5.20656 9.09859 5.07086 9.08698C4.21566 8.97757 3.43007 8.55898 2.8623 7.91016C2.29454 7.26133 1.98385 6.42713 1.98886 5.56497C1.98886 5.44897 1.99486 5.33498 2.00586 5.22198H2.01187ZM5.07986 0.898987C5.03656 0.887758 4.9924 0.880056 4.94785 0.875977C3.7689 1.04032 2.6954 1.6435 1.94186 2.56497C1.37275 3.24303 1.00671 4.06803 0.885864 4.94498C0.888844 4.98306 0.894869 5.02086 0.90387 5.05798C0.888618 5.20917 0.880932 5.36101 0.880859 5.51297C0.888082 6.35615 1.1199 7.18217 1.55246 7.90598C1.98502 8.62978 2.60269 9.22523 3.34186 9.63098C2.60254 10.0368 1.98479 10.6324 1.55222 11.3564C1.11965 12.0804 0.887905 12.9066 0.880859 13.75C0.888082 14.5931 1.1199 15.4192 1.55246 16.143C1.98502 16.8668 2.60269 17.4622 3.34186 17.868C2.59816 18.2686 1.97673 18.863 1.54346 19.5882C1.11019 20.3133 0.881236 21.1422 0.880859 21.987C0.880859 22.118 0.886851 22.247 0.896851 22.376C0.88259 22.4355 0.877888 22.497 0.882874 22.558C1.02026 23.5875 1.49418 24.5428 2.23087 25.275C2.96308 26.0117 3.9183 26.4856 4.94785 26.623C5.0092 26.628 5.07098 26.6233 5.13086 26.609C5.25886 26.62 5.38887 26.625 5.51987 26.625C6.36448 26.6246 7.19326 26.3957 7.91827 25.9624C8.64329 25.5291 9.23747 24.9077 9.63785 24.164C10.0434 24.9033 10.6389 25.5211 11.3627 25.9536C12.0865 26.3862 12.9126 26.618 13.7559 26.625C14.5993 26.6181 15.4256 26.3865 16.1496 25.9539C16.8736 25.5213 17.4692 24.9034 17.8748 24.164C18.2804 24.9033 18.8759 25.5211 19.5997 25.9536C20.3235 26.3862 21.1496 26.618 21.9929 26.625C22.1419 26.625 22.2928 26.618 22.4348 26.604C22.4784 26.6154 22.523 26.6227 22.5679 26.626C23.7449 26.4615 24.8163 25.8586 25.5679 24.938C26.1373 24.26 26.5037 23.435 26.6248 22.558C26.6219 22.5199 26.6159 22.4821 26.6069 22.445C26.6219 22.295 26.6288 22.145 26.6288 21.99C26.6218 21.1469 26.3902 20.3209 25.9578 19.5971C25.5254 18.8733 24.9079 18.2778 24.1689 17.872C24.908 17.4661 25.5257 16.8705 25.9581 16.1465C26.3905 15.4224 26.622 14.5963 26.6288 13.753C26.6218 12.9099 26.3902 12.0839 25.9578 11.3601C25.5254 10.6363 24.9079 10.0408 24.1689 9.63498C24.9124 9.23422 25.5336 8.63977 25.9667 7.91461C26.3998 7.18946 26.6286 6.36063 26.6288 5.51599C26.6288 5.38499 26.6239 5.25498 26.6139 5.12698C26.6271 5.06729 26.6319 5.006 26.6279 4.94498C26.4909 3.9151 26.0165 2.95967 25.2789 2.228C24.5473 1.49095 23.5923 1.01692 22.5629 0.879974C22.5015 0.874933 22.4397 0.879666 22.3799 0.893982C22.2519 0.882982 22.1218 0.877991 21.9908 0.877991C21.1462 0.878332 20.3175 1.10728 19.5925 1.54056C18.8675 1.97384 18.2732 2.5953 17.8729 3.33899C17.4672 2.59954 16.8716 1.98166 16.1476 1.54907C15.4235 1.11648 14.5972 0.884828 13.7538 0.877991C12.9106 0.885005 12.0845 1.11673 11.3607 1.54932C10.6368 1.9819 10.0415 2.59969 9.63586 3.33899C9.23019 2.59954 8.63462 1.98166 7.91058 1.54907C7.18655 1.11648 6.36024 0.884828 5.51685 0.877991C5.36785 0.877991 5.21686 0.884987 5.07486 0.898987H5.07986Z" fill="#6D7D93"/>
<path d="M22.593 27.503L22.501 27.496C22.463 27.496 22.424 27.488 22.386 27.483C22.256 27.492 22.124 27.497 21.993 27.497C20.9785 27.4955 19.9842 27.2134 19.12 26.682C18.6599 26.4004 18.242 26.055 17.879 25.656C17.3564 26.2312 16.7202 26.6919 16.0105 27.0088C15.3008 27.3256 14.5332 27.4919 13.756 27.497C12.7415 27.4955 11.7472 27.2134 10.883 26.682C10.4243 26.4009 10.0075 26.0565 9.64499 25.659C9.28545 26.0573 8.87055 26.4018 8.41299 26.682C7.54214 27.2149 6.54098 27.497 5.51999 27.497C5.40399 27.497 5.28699 27.497 5.17099 27.486C5.07479 27.498 4.9776 27.5 4.88098 27.492H4.85599H4.83099C4.21735 27.4097 3.6216 27.2262 3.06799 26.949C2.52992 26.6788 2.03922 26.3232 1.61499 25.896C1.18774 25.472 0.832422 24.9812 0.562988 24.443C0.284874 23.8897 0.10101 23.2938 0.0189813 22.68V22.655V22.63C0.0119647 22.5333 0.0139854 22.4363 0.0249933 22.34C0.0179933 22.224 0.0149835 22.107 0.0149835 21.992C0.0145199 20.9711 0.296219 19.9699 0.828979 19.099C1.10894 18.6406 1.45384 18.2253 1.85297 17.866C1.45467 17.5039 1.1099 17.0871 0.828979 16.628C0.297892 15.7637 0.0161798 14.7694 0.0149835 13.755C0.0200153 12.9779 0.186136 12.2103 0.502838 11.5006C0.819539 10.791 1.27994 10.1547 1.85498 9.63199C1.45598 9.26896 1.11053 8.85112 0.828979 8.39099C0.297892 7.52672 0.0161798 6.53238 0.0149835 5.51797C0.0149835 5.37897 0.0199747 5.23898 0.0309747 5.09998C0.0269747 5.07198 0.0239721 5.04399 0.0219721 5.01599L0.0149835 4.92398L0.0269769 4.83197C0.169568 3.79374 0.602516 2.81691 1.27597 2.01398C2.16676 0.921302 3.43846 0.206677 4.83499 0.0139771L4.92697 0.000976562L5.01999 0.00799561C5.05799 0.00799561 5.09597 0.0159961 5.13397 0.0209961C5.26497 0.0119961 5.39698 0.00698853 5.52698 0.00698853C6.54176 0.008717 7.53634 0.29076 8.40097 0.821991C8.86075 1.10362 9.27826 1.44907 9.64099 1.84799C10.1636 1.27272 10.7998 0.812088 11.5095 0.495209C12.2191 0.178329 12.9868 0.0120866 13.764 0.00698853C14.7788 0.008717 15.7733 0.29076 16.638 0.821991C17.0967 1.10312 17.5134 1.44749 17.876 1.84497C18.2355 1.44671 18.6504 1.10221 19.108 0.821991C19.9788 0.288928 20.98 0.00687787 22.001 0.00698853C22.117 0.00698853 22.234 0.00697485 22.349 0.0179749C22.4455 0.00597022 22.543 0.00397812 22.64 0.0119934H22.664H22.689C23.3027 0.094127 23.8984 0.277623 24.452 0.554993C24.9905 0.824867 25.4816 1.18049 25.906 1.60797C26.3337 2.03158 26.6891 2.52242 26.958 3.06097C27.2353 3.61452 27.4188 4.2103 27.501 4.82397V4.84897V4.87399C27.5081 4.97066 27.5058 5.06777 27.494 5.16397C27.501 5.27997 27.505 5.39599 27.505 5.51199C27.5051 6.533 27.223 7.53416 26.69 8.40497C26.4104 8.86327 26.0658 9.2786 25.667 9.63797C26.0652 9.9998 26.4097 10.4167 26.69 10.876C27.2214 11.7401 27.5035 12.7345 27.505 13.749C27.5 14.5262 27.3338 15.2939 27.0169 16.0036C26.7001 16.7133 26.2393 17.3495 25.664 17.872C26.063 18.2346 26.4085 18.6521 26.69 19.112C27.2212 19.9766 27.5032 20.9712 27.505 21.986C27.505 22.125 27.5 22.265 27.489 22.403C27.489 22.431 27.496 22.46 27.498 22.488L27.505 22.58L27.492 22.672C27.3498 23.7101 26.9172 24.687 26.244 25.49C25.353 26.5829 24.0809 27.2975 22.684 27.49L22.593 27.503ZM19.285 22.327C19.3683 22.9705 19.6847 23.5611 20.1741 23.9872C20.6635 24.4132 21.2921 24.6451 21.941 24.639C22.012 24.639 22.082 24.639 22.152 24.631C22.199 24.619 22.246 24.609 22.294 24.601H22.32C22.7955 24.5343 23.2445 24.3413 23.62 24.042C24.1531 23.6112 24.5023 22.9938 24.597 22.315V22.29C24.6068 22.2307 24.6198 22.1719 24.636 22.114C24.636 22.057 24.642 21.999 24.642 21.942C24.6479 21.2929 24.4158 20.6642 23.9896 20.1746C23.5634 19.6851 22.9727 19.3686 22.329 19.285C21.9812 19.2487 21.6594 19.0844 21.4261 18.824C21.1929 18.5635 21.0649 18.2256 21.067 17.876V17.746C21.0642 17.4037 21.1869 17.0723 21.4118 16.8143C21.6368 16.5563 21.9485 16.3897 22.288 16.346H22.313H22.339C22.9768 16.2627 23.5623 15.9496 23.9858 15.4655C24.4092 14.9813 24.6415 14.3592 24.639 13.716C24.6449 13.0669 24.4128 12.4382 23.9866 11.9486C23.5604 11.459 22.9697 11.1426 22.326 11.059C21.9782 11.0227 21.6564 10.8584 21.4232 10.598C21.1899 10.3375 21.0619 9.99962 21.064 9.64999V9.54999C21.0612 9.20771 21.1839 8.87625 21.4088 8.61829C21.6338 8.36032 21.9455 8.19375 22.285 8.14999H22.31H22.336C22.971 8.0603 23.5527 7.74533 23.9749 7.26254C24.3971 6.77976 24.6317 6.16133 24.636 5.51999C24.6376 4.82171 24.3659 4.15052 23.879 3.64999C23.3786 3.16291 22.7073 2.89115 22.009 2.89297C21.3657 2.89049 20.7437 3.12273 20.2595 3.54617C19.7753 3.96961 19.4622 4.55517 19.379 5.19299V5.21899V5.24399C19.3352 5.58347 19.1686 5.89514 18.9107 6.12012C18.6527 6.3451 18.3212 6.4678 17.979 6.465H17.879C17.5292 6.46715 17.1912 6.33914 16.9306 6.1059C16.67 5.87265 16.5055 5.55081 16.469 5.20297C16.3854 4.55929 16.0689 3.96854 15.5793 3.54236C15.0898 3.11617 14.461 2.88409 13.812 2.88998C13.1688 2.88749 12.5467 3.11974 12.0625 3.54318C11.5783 3.96662 11.2652 4.55215 11.182 5.18997V5.21597V5.24097C11.1382 5.58045 10.9716 5.89215 10.7137 6.11713C10.4557 6.34211 10.1243 6.46478 9.78198 6.46198H9.65298C9.30325 6.46413 8.96522 6.33615 8.70462 6.10291C8.44402 5.86966 8.27946 5.54782 8.24298 5.19998C8.1594 4.5563 7.8429 3.96555 7.35333 3.53937C6.86376 3.11318 6.23503 2.8811 5.58597 2.88699C5.51597 2.88699 5.44497 2.887 5.37497 2.896C5.32897 2.908 5.28097 2.91799 5.23297 2.92599H5.20697C4.73133 2.9923 4.2823 3.18538 3.90698 3.48499C3.3733 3.91526 3.02389 4.53291 2.92999 5.21198V5.23697C2.92017 5.29629 2.90715 5.35507 2.89099 5.41299C2.89099 5.46999 2.88599 5.52799 2.88599 5.58499C2.88006 6.2339 3.11198 6.8625 3.53796 7.35205C3.96394 7.8416 4.55447 8.15816 5.19797 8.24197C5.54572 8.27822 5.86756 8.44256 6.10083 8.703C6.3341 8.96344 6.46212 9.30134 6.45999 9.65097V9.78098C6.46283 10.1231 6.34028 10.4544 6.11551 10.7124C5.89073 10.9703 5.57929 11.137 5.23999 11.181H5.21399H5.18799C4.55008 11.264 3.9644 11.5771 3.54092 12.0613C3.11744 12.5455 2.88526 13.1677 2.88797 13.811C2.88186 14.4598 3.11376 15.0884 3.53979 15.5779C3.96583 16.0673 4.55648 16.3836 5.19998 16.467C5.54773 16.5037 5.86942 16.6683 6.10263 16.9288C6.33584 17.1894 6.46391 17.5273 6.46197 17.877V17.977C6.46481 18.3191 6.34227 18.6504 6.11749 18.9084C5.89272 19.1663 5.58127 19.333 5.24197 19.377H5.21597H5.18997C4.55492 19.4667 3.97326 19.7816 3.55106 20.2644C3.12885 20.7472 2.89423 21.3656 2.88998 22.007C2.88821 22.705 3.15995 23.3759 3.64697 23.876C4.14714 24.3634 4.81856 24.6352 5.51697 24.633C6.15825 24.6285 6.7766 24.3938 7.25934 23.9716C7.74208 23.5495 8.05709 22.9679 8.14697 22.333V22.307L8.15198 22.281C8.19595 21.9417 8.36267 21.6302 8.6206 21.4055C8.87854 21.1807 9.20985 21.0581 9.55197 21.061H9.65198C10.0017 21.0588 10.3397 21.1868 10.6003 21.4201C10.8609 21.6533 11.0255 21.9751 11.062 22.323C11.1456 22.9666 11.4621 23.5572 11.9517 23.9832C12.4413 24.4093 13.07 24.6411 13.719 24.635C14.3623 24.6377 14.9844 24.4055 15.4687 23.982C15.9529 23.5585 16.2659 22.9729 16.349 22.335V22.309L16.354 22.284C16.3977 21.9445 16.5643 21.6328 16.8223 21.4078C17.0803 21.1829 17.4117 21.0602 17.754 21.063H17.884C18.2325 21.0631 18.5686 21.1924 18.8273 21.4258C19.0861 21.6593 19.2491 21.9804 19.285 22.327Z" fill="#6D7D93"/>
<path d="M13.7699 17.163C13.1383 17.1648 12.5125 17.0413 11.9289 16.7996C11.3453 16.5579 10.8154 16.2028 10.37 15.755C9.92212 15.3095 9.56708 14.7796 9.3254 14.196C9.08371 13.6124 8.96017 12.9866 8.96193 12.355C8.96193 12.0719 9.07433 11.8004 9.2744 11.6002C9.47447 11.3999 9.74587 11.2873 10.0289 11.287C10.312 11.2873 10.5834 11.3999 10.7835 11.6002C10.9836 11.8004 11.0959 12.0719 11.0959 12.355C11.097 13.0638 11.3791 13.7432 11.8804 14.2443C12.3816 14.7453 13.0612 15.0272 13.7699 15.028C14.4787 15.0272 15.1582 14.7453 15.6595 14.2443C16.1608 13.7432 16.4429 13.0638 16.4439 12.355C16.4438 12.2148 16.4713 12.0759 16.5249 11.9464C16.5784 11.8168 16.657 11.699 16.7561 11.5999C16.8552 11.5007 16.9729 11.422 17.1024 11.3683C17.2319 11.3146 17.3707 11.287 17.5109 11.287C17.794 11.2873 18.0654 11.3999 18.2655 11.6002C18.4656 11.8004 18.5779 12.0719 18.5779 12.355C18.5796 12.9866 18.4561 13.6124 18.2144 14.196C17.9727 14.7796 17.6177 15.3095 17.1699 15.755C16.7245 16.2028 16.1946 16.5578 15.6109 16.7995C15.0273 17.0412 14.4016 17.1648 13.7699 17.163Z" fill="#6D7D93"/>
</svg>
