<svg width="137" height="25" viewBox="0 0 137 25" fill="none" xmlns="http://www.w3.org/2000/svg">
<g clip-path="url(#clip0)">
<path d="M42.7073 21.121H40.5782L34.2183 3.86902H36.4783L41.6073 18.502H41.6783L46.8073 3.86902H49.0673L42.7073 21.121Z" fill="#6D7D93"/>
<path d="M64.1754 19.184V21.121H53.4863V3.86902H64.1754V5.80603H55.6393V11.341H63.7333V13.254H55.6393V19.184H64.1754Z" fill="#6D7D93"/>
<path d="M71.5882 21.121H69.4602V3.86902H71.5532L80.9972 17.414H81.1042V3.86902H83.2322V21.121H81.1402L71.6952 7.62103H71.5882V21.121Z" fill="#6D7D93"/>
<path d="M91.1772 3.86902V14.928C91.1535 15.5255 91.252 16.1215 91.4668 16.6794C91.6816 17.2374 92.008 17.7457 92.4262 18.173C92.8867 18.6037 93.4298 18.9365 94.0226 19.1512C94.6154 19.3659 95.2457 19.458 95.8752 19.422C96.5048 19.458 97.1352 19.3659 97.7282 19.1512C98.3212 18.9365 98.8645 18.6038 99.3252 18.173C99.7433 17.7457 100.07 17.2374 100.285 16.6794C100.499 16.1215 100.598 15.5255 100.574 14.928V3.86902H102.726V15.069C102.757 15.9185 102.609 16.7649 102.291 17.5531C101.973 18.3413 101.492 19.0535 100.879 19.643C99.5111 20.8685 97.7134 21.5023 95.8792 21.406C94.045 21.5025 92.2473 20.8686 90.8792 19.643C90.2668 19.0535 89.7858 18.3413 89.4675 17.5531C89.1493 16.7649 89.0009 15.9185 89.0322 15.069V3.86902H91.1772Z" fill="#6D7D93"/>
<path d="M119.211 19.184V21.121H108.523V3.86902H119.211V5.80603H110.675V11.341H118.769V13.254H110.675V19.184H119.211Z" fill="#6D7D93"/>
<path d="M126.644 14.29V21.117H124.492V3.86902H130.96C132.425 3.7954 133.861 4.29791 134.96 5.26905C135.462 5.7492 135.855 6.33099 136.114 6.97547C136.373 7.61995 136.491 8.31226 136.46 9.00605C136.488 10.1164 136.166 11.2075 135.54 12.125C134.922 13.0052 134.025 13.6503 132.993 13.9551L136.986 21.116H134.464L130.77 14.289L126.644 14.29ZM126.644 5.77805V12.39H130.769C131.704 12.4505 132.624 12.1417 133.333 11.53C133.646 11.2068 133.887 10.8218 134.042 10.3997C134.197 9.97757 134.262 9.52775 134.233 9.07905C134.259 8.63052 134.188 8.18176 134.025 7.76307C133.862 7.34438 133.611 6.96551 133.289 6.65204C132.561 6.03495 131.624 5.72224 130.671 5.77903L126.644 5.77805Z" fill="#6D7D93"/>
<path d="M21.2441 25H12.7692V23.3H21.2441C21.9001 23.3144 22.5519 23.1918 23.1578 22.94C23.7637 22.6883 24.3104 22.313 24.7631 21.838C25.24 21.3848 25.617 20.8369 25.8699 20.2296C26.1229 19.6222 26.2463 18.9688 26.2322 18.311C26.2447 17.6523 26.1209 16.998 25.8687 16.3894C25.6164 15.7807 25.2411 15.2307 24.7662 14.774C24.6149 14.6274 24.456 14.4889 24.2902 14.359C24.0217 14.9589 23.6439 15.5035 23.1762 15.965C22.6962 16.4655 22.1183 16.8617 21.4785 17.1289C20.8386 17.3961 20.1505 17.5286 19.4572 17.518H13.0441V15.818H19.4501C19.9189 15.8278 20.3846 15.7395 20.8172 15.5587C21.2498 15.3779 21.6398 15.1085 21.9622 14.768C22.3174 14.4219 22.5963 14.0053 22.7811 13.545C22.2718 13.3857 21.7409 13.3061 21.2072 13.309H5.46216C4.74555 13.3168 4.03474 13.1801 3.3722 12.9069C2.70966 12.6337 2.10897 12.2297 1.60615 11.719C1.0904 11.2174 0.682474 10.6158 0.407355 9.95108C0.132236 9.28632 -0.00425918 8.57239 0.00617092 7.85303C-0.000706666 7.13654 0.137021 6.42604 0.411078 5.76401C0.685136 5.10197 1.08986 4.50201 1.60114 4.00003C2.12791 3.46653 2.75862 3.04687 3.45417 2.76703V2.74704L3.49116 2.73703C3.71212 2.1883 4.0433 1.6907 4.46418 1.27502C4.86244 0.864533 5.34035 0.539706 5.8686 0.320463C6.39684 0.10122 6.96426 -0.0078133 7.53614 2.86701e-05H14.0252C14.6135 0.0246608 15.1755 0.251399 15.6162 0.642027L15.6332 0.657042C15.8549 0.85354 16.0263 1.10019 16.1333 1.37643C16.2403 1.65267 16.2797 1.95047 16.2482 2.24502C16.2151 2.53537 16.1169 2.81451 15.9611 3.06174C15.8053 3.30896 15.5958 3.51791 15.3482 3.67303L15.3281 3.68704C14.8597 3.99462 14.3045 4.14263 13.7452 4.10904H5.46717C5.28028 4.10889 5.09356 4.12059 4.90815 4.14404C4.90815 4.21304 4.90113 4.28103 4.90113 4.35003C4.89408 4.69726 4.95894 5.0422 5.09162 5.36316C5.2243 5.68411 5.422 5.97414 5.67219 6.21502C5.91318 6.46506 6.20319 6.66261 6.52412 6.79529C6.84504 6.92796 7.18997 6.99289 7.53718 6.98602H19.4702C20.1637 6.97355 20.8524 7.10424 21.4931 7.3699C22.1339 7.63556 22.7129 8.03049 23.1942 8.53003C23.6919 9.01385 24.0859 9.59404 24.3521 10.2352C24.6182 10.8763 24.7509 11.5649 24.7421 12.259C24.7421 12.359 24.7421 12.45 24.7341 12.546L24.7551 12.557L24.7471 12.603C25.1831 12.8792 25.589 13.2003 25.9581 13.561C26.5928 14.1765 27.095 14.9151 27.4341 15.7315C27.7732 16.548 27.942 17.425 27.9302 18.309C27.9441 19.1903 27.7766 20.0649 27.438 20.8787C27.0994 21.6924 26.5971 22.4278 25.9622 23.039C25.352 23.6716 24.6184 24.1721 23.8068 24.5094C22.9952 24.8468 22.1229 25.0137 21.2441 25ZM3.22614 4.83002C3.0797 4.94178 2.94107 5.06341 2.81116 5.19403C2.45628 5.53867 2.17562 5.95227 1.98646 6.40936C1.79729 6.86646 1.70364 7.35738 1.71119 7.85202C1.70155 8.34694 1.79424 8.83853 1.98353 9.29593C2.17282 9.75332 2.4546 10.1667 2.81116 10.51C3.15599 10.8647 3.56963 11.1452 4.02668 11.3343C4.48373 11.5235 4.97459 11.6173 5.46918 11.61H21.2142C21.8238 11.6076 22.431 11.6856 23.0201 11.842C22.938 11.0381 22.5721 10.2897 21.9882 9.73102C21.6645 9.39145 21.2733 9.12341 20.8398 8.94412C20.4064 8.76483 19.9401 8.67829 19.4711 8.69003H7.53815C6.96737 8.6981 6.40092 8.58973 5.87342 8.37155C5.34592 8.15336 4.86847 7.82993 4.47016 7.42102C3.76059 6.73241 3.31865 5.81416 3.22315 4.83002H3.22614ZM5.73914 2.41003H13.8392C14.0351 2.42653 14.2308 2.37689 14.3951 2.26904C14.4591 2.22404 14.5561 2.14504 14.5621 2.07904V2.04303C14.5681 2.00003 14.5192 1.94302 14.4742 1.89902C14.3252 1.77371 14.1378 1.70315 13.9432 1.69903H7.54316C7.20989 1.69135 6.87845 1.75019 6.56818 1.8721C6.25792 1.99401 5.97505 2.17653 5.73615 2.40903L5.73914 2.41003ZM10.3461 24.491L9.66413 23.981C9.58461 23.9196 9.51127 23.8506 9.44514 23.775L9.41718 23.745C8.97603 23.3157 8.62706 22.8009 8.39167 22.2321C8.15628 21.6634 8.0394 21.0525 8.04816 20.437C8.03661 19.8198 8.15267 19.2068 8.38911 18.6366C8.62554 18.0663 8.97728 17.551 9.42219 17.123C9.85006 16.6963 10.355 16.3546 10.9102 16.116L11.6892 15.774L12.3712 17.332L11.5911 17.673C11.2285 17.8291 10.8988 18.0524 10.6191 18.331C10.3349 18.6017 10.1106 18.9289 9.9607 19.2917C9.81084 19.6545 9.73875 20.0447 9.74915 20.437C9.73881 20.8294 9.8109 21.2195 9.96076 21.5823C10.1106 21.9451 10.3349 22.2724 10.6191 22.543C10.6478 22.5724 10.6748 22.601 10.7001 22.629L10.7112 22.64L11.3641 23.13L10.3461 24.491Z" fill="#6D7D93"/>
<path d="M11.6992 24.9861C11.6228 24.9857 11.5468 24.9752 11.4732 24.955C10.7743 24.7615 10.1313 24.4047 9.59722 23.914C9.43037 23.7627 9.33045 23.5513 9.31939 23.3263C9.30832 23.1013 9.387 22.8811 9.5382 22.7141C9.68985 22.5477 9.90118 22.4481 10.126 22.437C10.3509 22.426 10.571 22.5044 10.7382 22.6551C11.049 22.944 11.4203 23.1599 11.8252 23.287C11.8442 23.2861 11.8632 23.2861 11.8822 23.287H13.6112C13.8367 23.287 14.053 23.3766 14.2126 23.536C14.3721 23.6953 14.4619 23.9115 14.4622 24.1371C14.4619 24.3627 14.3722 24.579 14.2126 24.7385C14.0531 24.898 13.8368 24.9878 13.6112 24.988H11.8822C11.8514 24.9879 11.8207 24.9859 11.7902 24.9821C11.76 24.9852 11.7296 24.9865 11.6992 24.9861ZM11.2462 17.7441C11.0815 17.7439 10.9204 17.6961 10.7823 17.6063C10.6442 17.5165 10.5351 17.3886 10.4682 17.238C10.4229 17.136 10.3981 17.026 10.3953 16.9144C10.3924 16.8028 10.4117 16.6917 10.4518 16.5876C10.4919 16.4834 10.5521 16.3881 10.6291 16.3072C10.706 16.2263 10.7981 16.1614 10.9002 16.1161C11.2329 15.9728 11.5834 15.8749 11.9422 15.825C11.9938 15.817 12.046 15.814 12.0982 15.816H13.8982C14.0099 15.8159 14.1206 15.8378 14.2238 15.8805C14.327 15.9231 14.4208 15.9857 14.4999 16.0647C14.5789 16.1436 14.6417 16.2374 14.6844 16.3405C14.7272 16.4437 14.7492 16.5543 14.7492 16.666C14.7492 16.7778 14.7272 16.8884 14.6844 16.9915C14.6417 17.0947 14.5789 17.1885 14.4999 17.2675C14.4208 17.3464 14.327 17.409 14.2238 17.4516C14.1206 17.4943 14.0099 17.5162 13.8982 17.5161H12.1372C11.9502 17.5449 11.7675 17.5966 11.5932 17.67C11.4854 17.7188 11.3686 17.7443 11.2502 17.7451L11.2462 17.7441Z" fill="#6D7D93"/>
</g>
<defs>
<clipPath id="clip0">
<rect width="137" height="25" fill="white"/>
</clipPath>
</defs>
</svg>
