<svg width="120" height="27" viewBox="0 0 120 27" fill="none" xmlns="http://www.w3.org/2000/svg">
<path d="M31.117 25.3871V25.614H21.694V25.3871C22.753 25.1981 23.17 24.933 23.283 24.101V11.5421C23.283 9.23306 22.451 8.09806 20.748 8.09806C20.185 8.10951 19.6401 8.29865 19.191 8.63846C18.742 8.97828 18.4119 9.45136 18.248 9.99006C18.3253 10.4275 18.3634 10.8709 18.362 11.315V23.122C18.362 24.522 18.778 25.09 20.062 25.392V25.6191H11.056V25.3871C12.342 25.0871 12.756 24.517 12.756 23.117V11.5371C12.756 9.22806 11.885 8.09305 10.22 8.09305C9.69056 8.09796 9.17597 8.26848 8.74841 8.58073C8.32085 8.89297 8.0018 9.33125 7.836 9.83405V23.117C7.836 24.517 8.25201 25.0851 9.53601 25.3871V25.614H0V25.3871C1.475 25.0471 2.23199 24.4031 2.23199 22.8871V10.823C2.23199 8.81704 1.703 8.21103 0 8.06003V7.83305L7.83301 5.67606V9.23304C8.16298 8.14777 8.84339 7.2025 9.76782 6.54514C10.6923 5.88778 11.8086 5.55541 12.942 5.60004C15.78 5.60004 17.559 7.03805 18.126 9.38505C18.4948 8.25965 19.2171 7.2834 20.1854 6.60145C21.1536 5.91949 22.3161 5.56827 23.5 5.60004C27.02 5.60004 28.874 7.87104 28.874 11.315V22.8951C28.884 24.4081 29.641 25.0521 31.117 25.3871Z" fill="#6D7D93"/>
<path d="M51.1378 21.494C50.4948 24.594 48.4889 26.187 45.8379 26.187C45.36 26.2307 44.8782 26.1788 44.4206 26.0345C43.963 25.8902 43.5387 25.6562 43.1724 25.3463C42.8061 25.0364 42.5051 24.6567 42.287 24.2293C42.0688 23.802 41.9379 23.3355 41.9018 22.857L41.8268 22.557C41.4808 23.6544 40.7806 24.6061 39.8358 25.263C38.8911 25.9199 37.7551 26.2449 36.6059 26.187C35.9558 26.2376 35.3024 26.1525 34.6869 25.9373C34.0715 25.722 33.5075 25.3812 33.0307 24.9365C32.554 24.4918 32.1748 23.9529 31.9173 23.3539C31.6598 22.7549 31.5295 22.1089 31.5348 21.457C31.5348 18.089 34.2598 15.894 38.6118 14.985L41.7528 14.342V13.542C41.7528 10.628 40.6928 8.62299 37.5138 8.62299C35.0548 8.62299 33.3139 9.79599 32.4809 12.748L32.1808 12.672C32.7808 8.31997 35.6618 5.59497 40.1278 5.59497C45.1608 5.59497 47.3559 8.81198 47.3559 13.656V21.262C47.3559 22.587 47.9988 23.268 48.8318 23.268C49.5508 23.268 50.3829 22.852 50.7989 21.452L51.1378 21.494ZM41.7528 21.911V15.287L40.2768 15.552C37.3248 16.158 36.7578 18.012 36.7578 19.866C36.7578 21.796 37.7039 23.31 39.5199 23.31C39.9927 23.3458 40.4645 23.2293 40.8664 22.9776C41.2682 22.7259 41.5788 22.3521 41.7528 21.911Z" fill="#6D7D93"/>
<path d="M71.688 25.387V25.614H62.152V25.387C63.401 25.087 63.8521 24.517 63.8521 23.117V11.58C63.8521 9.27102 62.9821 8.09803 61.2031 8.09803C60.5999 8.09285 60.0087 8.26608 59.5037 8.59595C58.9988 8.92583 58.6026 9.39763 58.3651 9.95203V23.122C58.3651 24.522 58.7811 25.09 60.0651 25.392V25.619H50.53V25.387C52.006 25.047 52.7631 24.403 52.7631 22.887V10.823C52.7631 8.817 52.233 8.211 50.53 8.06V7.83301L58.3641 5.67603V9.38703C58.7478 8.23254 59.5006 7.23631 60.5064 6.55195C61.5123 5.86759 62.7153 5.53309 63.9301 5.60001C67.5301 5.60001 69.4551 7.80003 69.4551 11.352V22.895C69.4561 24.408 70.213 25.052 71.688 25.387Z" fill="#6D7D93"/>
<path d="M84.556 21.154C83.724 23.916 81.68 26.187 78.388 26.187C75.209 26.187 73.695 24.181 73.695 21.23V7H71.501V6.811C74.5159 5.11148 77.1346 2.7897 79.183 0H79.334V6.24402H83.156V7H79.33V20.359C79.33 22.1 80.049 23.273 81.449 23.273C82.0993 23.2719 82.7302 23.0506 83.2386 22.6451C83.7471 22.2396 84.1032 21.6738 84.249 21.04L84.556 21.154Z" fill="#6D7D93"/>
<path d="M100.262 18.77C99.3159 24.219 95.873 26.187 92.58 26.187C88.19 26.187 84.1799 22.781 84.1799 16.272C84.1799 10.066 87.6239 5.59998 92.8079 5.59998C96.4789 5.59998 100.263 7.90898 100.225 14.153H88.5699C88.9479 18.997 91.4459 21.684 95.1169 21.684C96.1441 21.7784 97.1743 21.5383 98.054 20.9995C98.9336 20.4607 99.6154 19.652 99.9979 18.694L100.262 18.77ZM88.5299 12.787V13.203H95.0769C95.1149 8.35897 93.8659 6.65598 91.9769 6.65598C89.8549 6.65998 88.5299 9.00599 88.5299 12.787Z" fill="#6D7D93"/>
<path d="M114.758 5.59998V11.05H114.569C113.95 10.7782 113.275 10.6611 112.601 10.709C110.141 10.709 108.514 12.034 108.514 17.067V22.895C108.514 24.595 109.46 25.127 111.503 25.395V25.622H100.68V25.387C102.156 25.047 102.913 24.403 102.913 22.887V11.163C102.913 9.00599 102.345 8.24899 100.68 8.09799V7.87097L108.287 5.67599V14.153H108.476C108.776 8.05998 111.049 5.59998 114.342 5.59998H114.758Z" fill="#6D7D93"/>
<path d="M113.093 23.008C113.106 22.1828 113.443 21.3958 114.03 20.816C114.617 20.2363 115.409 19.9103 116.234 19.908C117.053 19.9189 117.835 20.249 118.414 20.828C118.993 21.407 119.323 22.1892 119.334 23.008C119.338 23.8353 119.014 24.6305 118.433 25.2193C117.852 25.8081 117.061 26.1424 116.234 26.149C115.821 26.1501 115.412 26.0696 115.031 25.9121C114.649 25.7546 114.303 25.5233 114.011 25.2314C113.719 24.9395 113.487 24.5928 113.33 24.2113C113.172 23.8297 113.092 23.4208 113.093 23.008Z" fill="#6D7D93"/>
</svg>
