<svg width="130" height="30" viewBox="0 0 130 30" fill="none" xmlns="http://www.w3.org/2000/svg">
<g clip-path="url(#clip0)">
<path d="M31.27 6.85H34.27V21.3H31.27V6.85Z" fill="#6D7D93"/>
<path d="M35.9499 16.35C35.95 15.3104 36.2586 14.2942 36.8368 13.4302C37.4151 12.5662 38.2368 11.8933 39.1978 11.4968C40.1589 11.1004 41.216 10.9982 42.2352 11.2032C43.2545 11.4082 44.1899 11.9112 44.9229 12.6484C45.6559 13.3857 46.1535 14.3239 46.3527 15.3443C46.5519 16.3647 46.4436 17.4212 46.0416 18.38C45.6397 19.3387 44.9621 20.1566 44.0948 20.7298C43.2275 21.3031 42.2095 21.6059 41.1699 21.6C40.4804 21.6054 39.7967 21.473 39.159 21.2107C38.5213 20.9484 37.9424 20.5614 37.4562 20.0725C36.97 19.5835 36.5863 19.0023 36.3277 18.3631C36.069 17.7239 35.9406 17.0395 35.9499 16.35V16.35ZM43.4699 16.35C43.4581 15.9018 43.3145 15.467 43.0569 15.1001C42.7993 14.7331 42.4392 14.4502 42.0217 14.2868C41.6042 14.1234 41.1477 14.0867 40.7095 14.1814C40.2712 14.276 39.8706 14.4977 39.5577 14.8189C39.2448 15.14 39.0336 15.5462 38.9503 15.9868C38.8671 16.4274 38.9156 16.8827 39.0898 17.2958C39.264 17.7089 39.5562 18.0615 39.9297 18.3095C40.3032 18.5575 40.7416 18.6898 41.1899 18.69C41.4952 18.696 41.7984 18.6389 42.0806 18.5223C42.3628 18.4058 42.6179 18.2323 42.83 18.0127C43.0421 17.7931 43.2067 17.532 43.3133 17.246C43.42 16.9599 43.4665 16.6549 43.4499 16.35H43.4699Z" fill="#6D7D93"/>
<path d="M58.26 11.4V20.81C58.26 24.13 55.66 25.54 53.03 25.54C52.1023 25.6161 51.1718 25.4318 50.3432 25.0078C49.5146 24.5838 48.8209 23.9369 48.34 23.14L50.87 21.68C51.075 22.0933 51.4011 22.4344 51.8049 22.6577C52.2086 22.881 52.6709 22.976 53.13 22.93C53.4225 22.966 53.7193 22.937 53.9992 22.8449C54.2791 22.7529 54.5353 22.6001 54.7493 22.3976C54.9633 22.195 55.13 21.9477 55.2373 21.6732C55.3445 21.3988 55.3899 21.104 55.37 20.81V19.9C55.0209 20.3233 54.5779 20.6593 54.0762 20.8815C53.5746 21.1037 53.028 21.2059 52.48 21.18C51.1539 21.18 49.8821 20.6532 48.9445 19.7155C48.0068 18.7778 47.48 17.5061 47.48 16.18C47.48 14.8539 48.0068 13.5821 48.9445 12.6445C49.8821 11.7068 51.1539 11.18 52.48 11.18C53.028 11.1541 53.5746 11.2563 54.0762 11.4785C54.5779 11.7006 55.0209 12.0367 55.37 12.46V11.46L58.26 11.4ZM55.37 16.15C55.3899 15.6716 55.2663 15.1981 55.015 14.7905C54.7637 14.3829 54.3962 14.0598 53.9598 13.8627C53.5234 13.6656 53.038 13.6036 52.5661 13.6846C52.0941 13.7656 51.6572 13.9859 51.3115 14.3172C50.9658 14.6485 50.7271 15.0757 50.6261 15.5438C50.5251 16.0118 50.5664 16.4994 50.7447 16.9438C50.9231 17.3882 51.2303 17.7691 51.6268 18.0375C52.0234 18.3059 52.4911 18.4496 52.97 18.45C53.2824 18.4725 53.5961 18.4292 53.8908 18.323C54.1855 18.2167 54.4546 18.0498 54.6808 17.833C54.907 17.6163 55.0852 17.3545 55.2039 17.0646C55.3226 16.7747 55.3792 16.4631 55.37 16.15V16.15Z" fill="#6D7D93"/>
<path d="M59.9501 16.35C59.9501 15.3112 60.2582 14.2958 60.8355 13.4322C61.4129 12.5686 62.2334 11.8957 63.1933 11.4987C64.1532 11.1016 65.2093 10.9982 66.228 11.2016C67.2466 11.405 68.1821 11.906 68.9159 12.6412C69.6497 13.3765 70.149 14.3129 70.3504 15.3319C70.5518 16.351 70.4464 17.4069 70.0475 18.366C69.6487 19.3252 68.9742 20.1444 68.1095 20.7201C67.2448 21.2958 66.2288 21.602 65.1901 21.6C64.4992 21.6067 63.814 21.4754 63.1746 21.2138C62.5351 20.9522 61.9544 20.5656 61.4663 20.0766C60.9783 19.5876 60.5928 19.0061 60.3324 18.3662C60.072 17.7263 59.942 17.0408 59.9501 16.35ZM67.4701 16.35C67.4582 15.9014 67.3143 15.4662 67.0563 15.099C66.7982 14.7319 66.4376 14.449 66.0195 14.2859C65.6014 14.1228 65.1444 14.0867 64.7059 14.1822C64.2674 14.2776 63.8668 14.5004 63.5544 14.8225C63.2419 15.1446 63.0314 15.5518 62.9493 15.993C62.8672 16.4342 62.9172 16.8898 63.0929 17.3027C63.2686 17.7157 63.5623 18.0676 63.9371 18.3144C64.312 18.5611 64.7513 18.6918 65.2001 18.69C65.5053 18.696 65.8085 18.6389 66.0907 18.5223C66.3729 18.4058 66.6281 18.2323 66.8402 18.0127C67.0523 17.7931 67.2168 17.532 67.3235 17.246C67.4301 16.9599 67.4766 16.6549 67.4601 16.35H67.4701Z" fill="#6D7D93"/>
<path d="M71.8201 8.75C71.8201 8.39795 71.9245 8.05381 72.12 7.76109C72.3156 7.46837 72.5936 7.24022 72.9189 7.1055C73.2441 6.97077 73.602 6.93552 73.9473 7.0042C74.2926 7.07289 74.6098 7.24242 74.8587 7.49135C75.1077 7.74029 75.2772 8.05745 75.3459 8.40274C75.4145 8.74803 75.3793 9.10593 75.2446 9.43118C75.1098 9.75643 74.8817 10.0344 74.589 10.23C74.2963 10.4256 73.9521 10.53 73.6001 10.53C73.1296 10.5248 72.6799 10.3356 72.3472 10.0029C72.0145 9.67021 71.8253 9.22048 71.8201 8.75V8.75ZM72.1101 11.4H75.1101V21.3H72.1101V11.4Z" fill="#6D7D93"/>
<path d="M87.9499 16.35C87.9836 17.0084 87.8866 17.667 87.6648 18.2878C87.4429 18.9086 87.1004 19.4794 86.6571 19.9673C86.2138 20.4552 85.6783 20.8507 85.0816 21.1309C84.4848 21.4111 83.8385 21.5705 83.1799 21.6C82.621 21.6372 82.061 21.5477 81.5415 21.3382C81.0221 21.1286 80.5566 20.8045 80.1799 20.39V25.28H77.1799V11.4H80.1799V12.33C80.5571 11.9167 81.0229 11.5941 81.5424 11.3862C82.062 11.1784 82.6218 11.0908 83.1799 11.13C83.8359 11.1595 84.4796 11.318 85.0743 11.5963C85.669 11.8746 86.2031 12.2674 86.646 12.7521C87.089 13.2368 87.4321 13.804 87.6558 14.4214C87.8796 15.0387 87.9795 15.694 87.9499 16.35V16.35ZM84.9499 16.35C84.9381 15.8855 84.7895 15.4349 84.5226 15.0546C84.2558 14.6742 83.8826 14.3811 83.4499 14.212C83.0172 14.0428 82.5442 14.0052 82.0902 14.1037C81.6361 14.2022 81.2213 14.4326 80.8976 14.7659C80.5739 15.0992 80.3559 15.5206 80.2707 15.9774C80.1855 16.4341 80.237 16.9058 80.4188 17.3334C80.6006 17.7609 80.9045 18.1253 81.2925 18.3809C81.6805 18.6365 82.1353 18.7718 82.5999 18.77C82.9182 18.7835 83.2356 18.7296 83.5316 18.6118C83.8275 18.494 84.0952 18.315 84.3171 18.0865C84.539 17.858 84.7101 17.5851 84.8191 17.2859C84.9282 16.9866 84.9728 16.6677 84.9499 16.35V16.35Z" fill="#6D7D93"/>
<path d="M97.0799 18.33C97.0799 20.61 95.08 21.58 92.96 21.58C92.0953 21.6578 91.2272 21.4745 90.4677 21.0538C89.7083 20.6331 89.0925 19.9943 88.7 19.22L91.28 17.76C91.3822 18.1168 91.6038 18.4277 91.9078 18.6407C92.2118 18.8537 92.5797 18.9558 92.95 18.93C93.66 18.93 94.02 18.71 94.02 18.31C94.02 17.22 89.1499 17.8 89.1499 14.37C89.1499 12.21 90.97 11.13 93.03 11.13C93.813 11.0949 94.5909 11.2726 95.2811 11.6441C95.9713 12.0156 96.548 12.5671 96.95 13.24L94.3699 14.6C94.256 14.342 94.0697 14.1226 93.8337 13.9682C93.5977 13.8138 93.322 13.7311 93.0399 13.73C92.5199 13.73 92.21 13.93 92.21 14.28C92.21 15.42 97.0799 14.67 97.0799 18.33Z" fill="#6D7D93"/>
<path d="M107.95 11.4V21.3H104.95V20.37C104.609 20.7816 104.176 21.1074 103.687 21.3211C103.197 21.5348 102.663 21.6303 102.13 21.6C100.13 21.6 98.4199 20.17 98.4199 17.5V11.4H101.42V17.05C101.396 17.2862 101.424 17.5247 101.502 17.7491C101.58 17.9734 101.705 18.1782 101.869 18.3494C102.034 18.5205 102.234 18.6539 102.455 18.7404C102.676 18.8268 102.913 18.8642 103.15 18.85C103.41 18.8658 103.67 18.8234 103.911 18.7261C104.152 18.6288 104.369 18.4789 104.545 18.2874C104.722 18.0959 104.853 17.8675 104.93 17.6189C105.007 17.3702 105.027 17.1076 104.99 16.85V11.4H107.95Z" fill="#6D7D93"/>
<path d="M124.95 15.22V21.3H121.95V15.48C121.95 14.48 121.48 13.86 120.53 13.86C119.58 13.86 118.98 14.55 118.98 15.72V21.3H115.98V15.48C115.98 14.48 115.51 13.86 114.56 13.86C113.61 13.86 113.01 14.55 113.01 15.72V21.3H110.01V11.4H113.01V12.31C113.321 11.908 113.726 11.5896 114.191 11.3836C114.655 11.1776 115.164 11.0904 115.67 11.13C116.177 11.1035 116.683 11.2095 117.137 11.4374C117.591 11.6653 117.978 12.0074 118.26 12.43C118.59 11.9884 119.026 11.6376 119.528 11.4103C120.029 11.1829 120.581 11.0865 121.13 11.13C123.47 11.13 124.95 12.75 124.95 15.22Z" fill="#6D7D93"/>
<path d="M13.4 4.25V0H0V29.2H13.4V24.95C10.655 24.95 8.02245 23.8596 6.08145 21.9186C4.14044 19.9776 3.05 17.345 3.05 14.6C3.05 11.855 4.14044 9.22245 6.08145 7.28144C8.02245 5.34044 10.655 4.25 13.4 4.25V4.25Z" fill="#6D7D93"/>
<path d="M13.3999 4.25V24.95C16.1449 24.95 18.7775 23.8596 20.7185 21.9186C22.6595 19.9776 23.7499 17.345 23.7499 14.6C23.7499 11.855 22.6595 9.22245 20.7185 7.28144C18.7775 5.34044 16.1449 4.25 13.3999 4.25V4.25Z" fill="#6D7D93"/>
<path d="M127.47 11.34C128.685 11.34 129.67 10.355 129.67 9.14C129.67 7.92498 128.685 6.94 127.47 6.94C126.255 6.94 125.27 7.92498 125.27 9.14C125.27 10.355 126.255 11.34 127.47 11.34Z" fill="#6D7D93"/>
</g>
<defs>
<clipPath id="clip0">
<rect width="129.67" height="29.199" fill="white"/>
</clipPath>
</defs>
</svg>
