<svg width="103" height="36" viewBox="0 0 103 36" fill="none" xmlns="http://www.w3.org/2000/svg">
<path d="M9.55615 11.757C9.18383 11.4117 8.75527 11.1324 8.28906 10.931C7.75975 10.7134 7.19133 10.6071 6.61914 10.619C5.95119 10.5894 5.29435 10.7974 4.76514 11.206C4.53139 11.3955 4.34498 11.6369 4.2207 11.911C4.09643 12.1851 4.03763 12.4843 4.04907 12.785C4.04073 13.0801 4.09537 13.3735 4.20935 13.6457C4.32333 13.918 4.49403 14.1629 4.71008 14.364C5.32714 14.9066 6.00464 15.3764 6.72913 15.764L9.7771 17.526C10.7232 18.0122 11.5553 18.694 12.2181 19.526C12.7374 20.2853 12.9892 21.1958 12.9341 22.114C12.9575 22.8012 12.8145 23.4839 12.5173 24.1039C12.2201 24.7239 11.7776 25.2629 11.2272 25.675C9.71227 26.7162 7.99024 27.4178 6.17908 27.732C5.64325 27.7303 5.10837 27.6875 4.5791 27.604C4.03907 27.5209 3.50473 27.4043 2.97913 27.255C2.4872 27.1144 2.00322 26.9475 1.52917 26.755C1.13454 26.5986 0.748639 26.421 0.373169 26.223L0.00610352 21.34H1.40613L3.02209 24.864C3.49509 25.2699 4.01235 25.6211 4.56409 25.911C5.12044 26.1971 5.73862 26.342 6.36414 26.333C6.74616 26.3609 7.12991 26.3119 7.49268 26.189C7.85544 26.066 8.18978 25.8715 8.47607 25.617C8.70553 25.3964 8.8874 25.1311 9.01038 24.8375C9.13335 24.5439 9.1949 24.2283 9.19116 23.91C9.19674 23.5798 9.14696 23.2509 9.04407 22.937C8.94221 22.6488 8.7796 22.3858 8.56714 22.166C8.31159 21.9032 8.02865 21.6686 7.72314 21.466C7.37981 21.234 6.97578 20.971 6.51111 20.677L3.46411 18.914C2.66584 18.457 1.94164 17.8815 1.31616 17.207C0.670132 16.475 0.334394 15.5203 0.380127 14.545C0.370182 13.9254 0.508206 13.3124 0.782837 12.7568C1.05747 12.2013 1.46075 11.7193 1.95911 11.351C3.44124 10.3286 5.1148 9.61634 6.87915 9.25701C7.96051 9.23303 9.03872 9.38188 10.0731 9.69799C10.8577 9.95106 11.6194 10.2702 12.3501 10.652V15.168H11.0961L9.55615 11.757Z" fill="#6D7D93"/>
<path d="M23.6539 27.728C23.0913 27.7283 22.5306 27.6612 21.9839 27.528C21.4387 27.3965 20.9223 27.1663 20.46 26.849V34.339L23.948 34.66L23.8749 35.623H14.075L14.002 34.66L16.2419 34.339V11.573L13.965 11.867L13.855 10.905L19.105 9.64599H20.2429L20.4259 13.086L25.4189 9.26C26.3825 9.25173 27.3357 9.45879 28.209 9.86602C29.0606 10.2659 29.8177 10.8415 30.4309 11.555C31.0794 12.3212 31.5721 13.2069 31.881 14.162C32.2342 15.2462 32.4077 16.3808 32.3949 17.521C32.5146 19.9694 31.7526 22.3796 30.2469 24.314C28.5165 26.1885 26.1834 27.3966 23.6539 27.728ZM27.876 19.1C27.9572 17.3798 27.6169 15.6658 26.8849 14.107C26.6574 13.5715 26.2798 13.1134 25.7977 12.7878C25.3156 12.4622 24.7496 12.283 24.168 12.272C23.6757 12.2713 23.1922 12.4025 22.7679 12.652C22.2455 12.9611 21.7429 13.3024 21.2629 13.674L20.455 14.315V24.723C20.7975 25.1999 21.2507 25.5863 21.7759 25.849C22.3344 26.1279 22.9517 26.2689 23.5759 26.26C24.224 26.2608 24.8598 26.0831 25.4136 25.7463C25.9673 25.4096 26.4176 24.9268 26.715 24.351C27.5685 22.7374 27.9697 20.923 27.876 19.1Z" fill="#6D7D93"/>
<path d="M41.6071 9.26C42.636 9.2418 43.6639 9.33402 44.6731 9.53503C45.4017 9.67458 46.0833 9.99544 46.655 10.468C47.172 10.931 47.5423 11.5351 47.7201 12.206C47.9475 13.0837 48.0525 13.9886 48.0321 14.895V22.433C48.0229 22.9913 48.0722 23.549 48.1791 24.097C48.2729 24.5415 48.4068 24.9766 48.5791 25.397H50.379L50.5261 26.363L44.8351 27.472L43.8811 24.461L39.181 27.729C37.8061 27.7829 36.4556 27.3545 35.3631 26.518C34.8619 26.1066 34.4646 25.5833 34.203 24.99C33.9414 24.3968 33.8229 23.7504 33.8571 23.103C33.85 22.4285 33.9813 21.7597 34.2431 21.138C34.5551 20.4649 35.0124 19.8693 35.582 19.394L43.6961 16.787V14.4C43.6988 13.9217 43.6744 13.4436 43.6231 12.968C43.589 12.6022 43.4829 12.2467 43.3111 11.922C43.1474 11.6365 42.8965 11.4111 42.5951 11.279C42.1871 11.1156 41.7491 11.0407 41.3101 11.059C40.9207 11.0562 40.5323 11.0994 40.1531 11.188C39.7618 11.2848 39.3757 11.4013 38.9961 11.537L38.3361 15.355H34.4811V12.306L41.6071 9.26ZM43.7001 17.815L39.4 19.504C39.0048 19.8492 38.6935 20.28 38.4899 20.7637C38.2863 21.2473 38.1957 21.7711 38.2251 22.295C38.1701 23.0538 38.3992 23.8059 38.8681 24.405C39.0538 24.6291 39.2868 24.8095 39.5502 24.9335C39.8136 25.0574 40.101 25.1217 40.3921 25.122C40.8397 25.1261 41.2813 25.0189 41.6771 24.81C42.0685 24.6013 42.3991 24.4113 42.6691 24.24L43.6961 23.506L43.7001 17.815Z" fill="#6D7D93"/>
<path d="M60.4792 11.132C60.0437 10.8827 59.5489 10.7559 59.0472 10.765C58.4887 10.7622 57.9385 10.8998 57.4471 11.165C56.9209 11.4563 56.4687 11.8644 56.1252 12.358C55.7071 12.9673 55.3965 13.6438 55.2071 14.358C54.9599 15.2796 54.8425 16.231 54.8581 17.185C54.8483 18.1739 54.9906 19.1584 55.2801 20.104C55.5348 20.9462 55.9389 21.7358 56.4731 22.435C56.9726 23.0837 57.6127 23.6109 58.3451 23.977C59.0986 24.3486 59.929 24.5374 60.7691 24.528C61.5163 24.5363 62.2583 24.4004 62.9541 24.128C63.6468 23.8484 64.3056 23.4915 64.9181 23.064L65.3581 23.982C64.4636 24.7634 63.5061 25.4695 62.4952 26.093C61.4316 26.7346 60.3135 27.2814 59.1541 27.727C58.0074 27.7407 56.8682 27.5417 55.7941 27.14C54.7845 26.7597 53.8677 26.1683 53.1048 25.4054C52.3419 24.6425 51.7505 23.7256 51.3702 22.716C50.9373 21.5601 50.7256 20.3331 50.7461 19.099C50.7208 17.7832 50.9709 16.4766 51.4801 15.263C51.944 14.1862 52.6177 13.2126 53.4621 12.399C54.3103 11.5929 55.2837 10.9296 56.3442 10.435C57.4318 9.92152 58.5717 9.52726 59.7442 9.25903C60.7137 9.27224 61.6722 9.46553 62.5711 9.82904C63.443 10.1488 64.2606 10.6007 64.9952 11.169V15.061H61.6171L60.4792 11.132Z" fill="#6D7D93"/>
<path d="M70.6123 17.558C70.5689 19.4098 71.1944 21.2151 72.3742 22.643C72.9206 23.2428 73.5914 23.7161 74.3396 24.03C75.0878 24.3438 75.8955 24.4906 76.7063 24.46C77.5147 24.4602 78.3167 24.3173 79.0753 24.038C79.8264 23.7669 80.5461 23.4159 81.2223 22.991L81.6992 23.909C80.7431 24.7382 79.7105 25.4749 78.6152 26.109C77.4863 26.743 76.3074 27.2835 75.0902 27.725C73.9683 27.73 72.855 27.531 71.8043 27.138C70.7759 26.7626 69.8358 26.1792 69.0429 25.4242C68.2501 24.6692 67.6215 23.7588 67.1963 22.75C66.5403 21.0709 66.3427 19.2474 66.6239 17.4668C66.905 15.6861 67.6548 14.0123 68.7962 12.617C70.4877 10.8996 72.6555 9.72915 75.0193 9.25701C76.0089 9.23877 76.9929 9.40843 77.9193 9.75701C78.7082 10.0596 79.4176 10.5385 79.9933 11.157C80.5574 11.7799 80.9773 12.5194 81.2232 13.323C81.4991 14.2207 81.6341 15.1559 81.6233 16.095V17.564L70.6123 17.558ZM77.1843 16.42V16.011C77.235 14.7168 77.0289 13.4253 76.5782 12.211C76.3685 11.7431 76.0154 11.354 75.5699 11.1C75.1245 10.846 74.6097 10.7402 74.1002 10.798C73.5862 10.7824 73.0779 10.9085 72.631 11.1627C72.184 11.4169 71.8156 11.7893 71.5663 12.239C70.9141 13.4443 70.5734 14.7935 70.5753 16.164V16.416L77.1843 16.42Z" fill="#6D7D93"/>
<path d="M99.2872 22.507C99.273 23.0655 99.3222 23.6237 99.4342 24.171C99.5389 24.5934 99.6867 25.0038 99.8752 25.396H101.857L102.004 26.362L96.2772 27.471L95.2492 24.21L90.4771 27.728C89.4726 27.7448 88.477 27.5376 87.5625 27.1216C86.648 26.7056 85.8376 26.0912 85.1902 25.323C84.5285 24.5324 84.0238 23.6228 83.7032 22.643C83.3387 21.547 83.1585 20.398 83.1701 19.243C83.0594 16.8327 83.8293 14.4645 85.3362 12.58C86.9865 10.7661 89.2217 9.58953 91.6512 9.25598C92.2445 9.2655 92.8328 9.36675 93.3952 9.55603C93.9743 9.73623 94.5336 9.97405 95.0652 10.266V2.97803L92.8252 3.16199L92.6782 2.15302L97.9652 0.995972H99.2872V22.507ZM91.4302 24.68C91.8967 24.6846 92.3591 24.5923 92.7882 24.409C93.3077 24.1666 93.8001 23.87 94.2572 23.524L95.0642 22.945V12.284C94.7542 11.8568 94.3528 11.5042 93.8891 11.252C93.372 10.9697 92.7902 10.8273 92.2011 10.839C91.5196 10.8166 90.8451 10.9831 90.2522 11.32C89.6592 11.6569 89.1709 12.151 88.8412 12.748C87.9948 14.3374 87.5953 16.1265 87.6852 17.925C87.6103 19.6188 87.964 21.3041 88.7132 22.825C88.9427 23.3607 89.3201 23.8199 89.8014 24.1487C90.2826 24.4774 90.8476 24.6621 91.4302 24.681V24.68Z" fill="#6D7D93"/>
</svg>
