<svg width="32" height="32" viewBox="0 0 32 32" fill="none" xmlns="http://www.w3.org/2000/svg">
<path d="M4 9.33341L15.26 1.82674C15.4791 1.68055 15.7366 1.60254 16 1.60254C16.2634 1.60254 16.5209 1.68055 16.74 1.82674L28 9.33341V28.0001C28 28.3537 27.8595 28.6928 27.6095 28.9429C27.3594 29.1929 27.0203 29.3334 26.6667 29.3334H5.33333C4.97971 29.3334 4.64057 29.1929 4.39052 28.9429C4.14048 28.6928 4 28.3537 4 28.0001V9.33341ZM6.66667 10.7601V26.6667H25.3333V10.7601L16 4.53874L6.66667 10.7601ZM10.6667 21.3334H21.3333V24.0001H10.6667V21.3334ZM10.6667 17.3334H21.3333V20.0001H10.6667V17.3334ZM16 14.6667C15.2928 14.6667 14.6145 14.3858 14.1144 13.8857C13.6143 13.3856 13.3333 12.7073 13.3333 12.0001C13.3333 11.2928 13.6143 10.6146 14.1144 10.1145C14.6145 9.61436 15.2928 9.33341 16 9.33341C16.7072 9.33341 17.3855 9.61436 17.8856 10.1145C18.3857 10.6146 18.6667 11.2928 18.6667 12.0001C18.6667 12.7073 18.3857 13.3856 17.8856 13.8857C17.3855 14.3858 16.7072 14.6667 16 14.6667Z" fill="#3454D1"/>
</svg>
