<svg width="61" height="48" viewBox="0 0 61 48" fill="none" xmlns="http://www.w3.org/2000/svg">
<path d="M27.8039 35.0497C27.8039 27.9724 23.4227 23.4226 15.8398 23.4226C14.3232 23.4226 13.1436 23.7597 12.3011 24.2652C12.6381 16.5138 19.7155 11.29 26.1188 10.279V0C15.5028 1.01105 0 8.59392 0 31.174C0 40.105 5.72928 47.3508 14.6602 47.3508C22.5801 47.3508 27.8039 41.6215 27.8039 35.0497ZM61 35.0497C61 27.9724 56.6188 23.4226 49.0359 23.4226C47.5193 23.4226 46.3398 23.7597 45.4972 24.2652C45.8343 16.5138 52.9116 11.29 59.3149 10.279V0C48.6989 1.01105 33.1961 8.59392 33.1961 31.174C33.1961 40.105 38.9254 47.3508 47.8564 47.3508C55.7762 47.3508 61 41.6215 61 35.0497Z" fill="#F3F7F9"/>
</svg>
