<svg width="20" height="20" viewBox="0 0 20 20" fill="none" xmlns="http://www.w3.org/2000/svg">
<path d="M17.5 9.16667H15V3.33333C15 3.11232 14.9122 2.90036 14.7559 2.74408C14.5996 2.5878 14.3876 2.5 14.1666 2.5H2.49996C2.27895 2.5 2.06698 2.5878 1.9107 2.74408C1.75442 2.90036 1.66663 3.11232 1.66663 3.33333V15C1.66663 16.3783 2.78829 17.5 4.16663 17.5H15.8333C17.2116 17.5 18.3333 16.3783 18.3333 15V10C18.3333 9.77899 18.2455 9.56702 18.0892 9.41074C17.9329 9.25446 17.721 9.16667 17.5 9.16667ZM4.16663 15.8333C3.94561 15.8333 3.73365 15.7455 3.57737 15.5893C3.42109 15.433 3.33329 15.221 3.33329 15V4.16667H13.3333V15C13.3333 15.2925 13.3841 15.5733 13.4758 15.8333H4.16663ZM16.6666 15C16.6666 15.221 16.5788 15.433 16.4225 15.5893C16.2663 15.7455 16.0543 15.8333 15.8333 15.8333C15.6123 15.8333 15.4003 15.7455 15.244 15.5893C15.0878 15.433 15 15.221 15 15V10.8333H16.6666V15Z" fill="#6D7D93"/>
<path d="M5 5.83325H11.6667V7.49992H5V5.83325ZM5 9.16659H11.6667V10.8333H5V9.16659ZM9.16667 12.4999H11.6667V14.1666H9.16667V12.4999Z" fill="#6D7D93"/>
</svg>
